<?xml version="1.0" standalone="no"?>
<!DOCTYPE svg PUBLIC "-//W3C//DTD SVG 1.1//EN" "http://www.w3.org/Graphics/SVG/1.1/DTD/svg11.dtd" >
<svg>
<metadata>
Created by FontForge 20110222 at Mon Mar  7 08:08:15 2011
 By www-data
[c] 1996 Computer Support Corporation
</metadata>
<defs>
<font id="ParisianNormal" horiz-adv-x="441" >
  <font-face 
    font-family="Parisian"
    font-weight="400"
    font-stretch="normal"
    units-per-em="1000"
    panose-1="2 0 5 3 0 0 0 0 0 0"
    ascent="800"
    descent="-200"
    x-height="462"
    cap-height="672"
    bbox="-117 -223 1045 861"
    underline-thickness="18"
    underline-position="-130"
    unicode-range="U+0020-2122"
  />
    <missing-glyph />
    <glyph glyph-name="space" unicode=" " horiz-adv-x="264" 
 />
    <glyph glyph-name="exclam" unicode="!" horiz-adv-x="205" 
d="M170 195h-120c0 467 0 468 -6 478c-3 6 -14 17 -33 32h102v-452c13 -22 37 -47 57 -58zM170 56c0 -32 -28 -57 -64 -57c-42 0 -63 19 -63 57c0 34 32 64 63 64c34 0 64 -30 64 -64z" />
    <glyph glyph-name="quotedbl" unicode="&#x22;" horiz-adv-x="256" 
d="M223 552h-64v128h64v-128zM96 552h-64v128h64v-128z" />
    <glyph glyph-name="numbersign" unicode="#" horiz-adv-x="504" 
d="M470 444l-11 -64h-64l-24 -135h64l-11 -64h-64l-32 -181h-64l32 181h-135l-32 -181h-64l32 181h-65l11 64h65l24 135h-65l11 64h65l32 180h64l-32 -180h135l32 180h64l-32 -180h64zM331 380h-135l-24 -135h135z" />
    <glyph glyph-name="dollar" unicode="$" horiz-adv-x="436" 
d="M401 213c0 -40 -22 -77 -67 -111c-7 -5 -38 -23 -95 -54c-4 -3 -7 -14 -8 -33c-1 -18 -7 -28 -18 -30c-23 47 -25 49 -33 52c-37 10 -75 20 -112 30c-42 17 -63 46 -63 88c0 51 51 96 122 96c34 -5 48 -7 60 -7c11 0 17 2 17 7c0 31 -7 34 -114 77c-27 16 -40 42 -40 77
c0 32 13 56 40 73c111 48 118 53 120 79h32c1 -32 17 -37 90 -60c21 -10 31 -26 31 -48c0 -50 -28 -57 -90 -63c-21 -3 -31 -9 -31 -20s14 -21 41 -31c90 -32 118 -60 118 -122zM299 487c-21 3 -23 3 -26 3c-4 0 -12 -2 -25 -5c14 -60 16 -68 30 -68c3 0 7 1 12 4
c9 16 9 17 9 66zM194 494c-58 -8 -87 -29 -87 -64c0 -34 28 -53 84 -57c5 17 9 43 9 70c0 22 -2 39 -6 51zM344 194c0 30 -33 59 -99 87c-1 -5 -11 -88 -11 -89c0 -19 1 -56 3 -110c56 27 107 82 107 112zM191 98c2 7 2 8 2 10c0 4 0 12 -2 22c-9 -3 -16 -4 -23 -4
c-8 0 -10 1 -44 15c0 7 5 12 15 13c14 1 26 8 36 21c-11 12 -43 25 -68 25c-30 0 -70 -29 -70 -51c0 -40 59 -76 116 -76c28 0 42 2 42 5c-3 14 -4 16 -4 20z" />
    <glyph glyph-name="percent" unicode="%" horiz-adv-x="496" 
d="M256 512c0 -65 -47 -112 -112 -112c-66 0 -112 50 -112 112c0 66 50 112 112 112c65 0 112 -47 112 -112zM467 624l-361 -624h-74l361 624h74zM467 112c0 -65 -47 -112 -112 -112c-76 0 -112 64 -112 112c0 66 50 112 112 112c65 0 112 -47 112 -112zM192 512
c0 27 -21 48 -48 48s-48 -21 -48 -48c0 -28 20 -48 48 -48c29 0 48 20 48 48zM403 112c0 27 -21 48 -48 48s-48 -21 -48 -48c0 -28 20 -48 48 -48c29 0 48 20 48 48z" />
    <glyph glyph-name="ampersand" unicode="&#x26;" horiz-adv-x="668" 
d="M628 549c0 -93 -95 -144 -286 -151c-137 -6 -249 -63 -251 -137c0 -47 50 -127 110 -170c43 -31 91 -46 143 -46c105 0 168 60 168 161c0 75 -59 136 -137 136c-60 0 -110 -49 -110 -110c0 -48 28 -81 69 -81c33 0 58 23 81 74c0 -73 -26 -110 -91 -110
c-63 0 -110 50 -110 117c0 78 82 149 174 149s182 -96 182 -195c0 -110 -102 -193 -240 -193c-187 0 -324 148 -324 349c0 191 148 356 318 356c102 0 174 -43 174 -103c0 -43 -28 -65 -83 -65c-50 0 -85 17 -104 51c15 -3 31 -4 48 -4c41 0 62 8 62 24c0 32 -53 58 -116 58
c-114 0 -227 -129 -227 -265c0 -24 2 -45 6 -62c61 68 138 108 233 120c227 22 272 27 272 84c0 21 -3 24 -29 35c2 21 10 32 24 32c31 0 44 -16 44 -54z" />
    <glyph glyph-name="quotesingle" unicode="'" horiz-adv-x="182" 
d="M145 602c0 -62 -29 -101 -74 -101c-7 0 -15 1 -23 3c16 11 29 24 39 39c-72 45 -72 45 -72 84c0 29 30 58 66 58c43 0 64 -28 64 -83z" />
    <glyph glyph-name="parenleft" unicode="(" horiz-adv-x="218" 
d="M220 -169h-26c-110 142 -188 313 -188 388v129c0 78 70 255 149 362c0 -15 -5 -33 -21 -77c-49 -137 -69 -230 -69 -330c0 -154 44 -269 155 -472z" />
    <glyph glyph-name="parenright" unicode=")" horiz-adv-x="245" 
d="M215 274c0 -37 -46 -210 -105 -333c-34 -70 -66 -109 -95 -117c29 62 57 124 86 186c33 84 49 170 49 257c0 130 -25 232 -88 354c-23 47 -37 79 -40 96c30 -18 109 -138 147 -229c31 -74 46 -145 46 -214z" />
    <glyph glyph-name="asterisk" unicode="*" horiz-adv-x="389" 
d="M372 591c0 -11 -3 -19 -9 -24c-23 4 -46 6 -70 6c-46 0 -69 -5 -69 -15c0 -20 88 -78 110 -85c0 -28 -53 -69 -78 -69c-5 0 -9 1 -12 4c-3 70 -41 129 -51 129c-18 0 -50 -88 -52 -129c-3 -3 -6 -4 -11 -4c-31 0 -80 39 -80 62c0 3 1 5 2 7c24 8 109 65 109 85
c0 10 -23 15 -68 15c-25 0 -48 -2 -70 -6c-5 4 -8 11 -8 21c0 38 20 85 42 85c21 -27 91 -79 110 -79c8 0 12 4 12 12c0 24 -22 87 -42 123c4 13 23 19 57 19c33 0 51 -6 55 -19c-20 -36 -42 -99 -42 -123c0 -8 4 -12 12 -12c20 0 93 57 110 79c22 0 43 -43 43 -82z" />
    <glyph glyph-name="plus" unicode="+" horiz-adv-x="400" 
d="M369 185h-137v-136h-64v136h-136v64h136v137h64v-137h137v-64z" />
    <glyph glyph-name="comma" unicode="," horiz-adv-x="186" 
d="M145 42c0 -40 -19 -74 -57 -103h-45c32 25 34 26 35 51c-45 16 -67 40 -67 71c0 38 30 71 64 71c47 0 70 -30 70 -90z" />
    <glyph glyph-name="hyphen" unicode="-" horiz-adv-x="286" 
d="M240 386c0 -53 -30 -78 -75 -78c-20 9 -45 13 -75 13c-25 0 -51 -3 -80 -9c9 45 32 68 70 68c23 -3 93 -12 104 -14c7 0 25 7 56 20z" />
    <glyph glyph-name="period" unicode="." horiz-adv-x="173" 
d="M140 65c0 -35 -30 -65 -65 -65s-64 29 -64 65s28 64 64 64c43 0 65 -21 65 -64z" />
    <glyph glyph-name="slash" unicode="/" horiz-adv-x="496" 
d="M499 680l-425 -736h-74l425 736h74z" />
    <glyph glyph-name="zero" unicode="0" horiz-adv-x="477" 
d="M440 321c0 -186 -97 -325 -229 -325c-108 0 -205 134 -205 287c0 87 33 196 70 227c-3 -15 -9 -64 -19 -145c0 -70 14 -138 42 -203c37 -85 87 -127 150 -127c79 0 140 93 140 210c0 65 -14 136 -41 212c-36 101 -84 151 -143 151c-27 0 -58 -22 -58 -44
c0 -18 13 -27 38 -27h20v-31c-17 -17 -32 -25 -45 -25c-31 0 -51 29 -51 64c0 42 53 82 108 82c131 0 223 -137 223 -306z" />
    <glyph glyph-name="one" unicode="1" horiz-adv-x="214" 
d="M169 28c0 -10 -41 -32 -64 -32c-21 0 -39 80 -39 174c0 64 5 113 45 325c-47 0 -91 3 -95 5v29c20 6 21 6 25 6c31 0 52 10 62 31c11 23 31 37 60 40c0 -30 -2 -45 -20 -136c-13 -67 -19 -139 -19 -216c0 -87 12 -151 45 -226z" />
    <glyph glyph-name="two" unicode="2" horiz-adv-x="423" 
d="M377 96c-4 -18 -15 -49 -32 -93c-62 20 -80 25 -160 25c-49 0 -53 0 -180 -22c31 90 57 117 235 301c40 49 60 100 60 152c0 83 -54 141 -135 141c-51 0 -110 -40 -110 -96c0 -37 22 -64 52 -64c18 0 27 5 45 25c8 -13 12 -21 12 -24c-3 -3 -6 -6 -6 -7
c0 -39 -19 -59 -57 -59c-51 0 -84 47 -84 103c0 79 80 142 180 142c107 0 174 -64 174 -167c0 -53 -24 -106 -72 -158c-201 -175 -214 -187 -221 -228c13 4 112 14 299 29z" />
    <glyph glyph-name="three" unicode="3" horiz-adv-x="459" 
d="M426 231c0 -118 -129 -231 -270 -231c-89 0 -147 40 -147 103c0 33 24 58 57 58c40 0 49 -14 59 -61c-17 3 -30 5 -37 5c-6 0 -9 -1 -9 -4l1 -5c-24 0 -26 0 -26 -19c0 -26 50 -58 90 -58c108 0 212 103 212 206c0 75 -62 135 -141 135c-29 0 -51 -4 -64 -11
c-17 -11 -36 -18 -56 -21c1 17 31 52 89 104c73 66 115 106 127 121h-167c-36 0 -45 -5 -84 -26c-12 0 -38 36 -38 51c0 18 81 39 141 39c23 0 42 -2 154 -20c7 0 14 1 47 11c9 0 19 -4 31 -11l-180 -186l6 -6c130 -34 146 -39 171 -66c23 -24 34 -60 34 -108z" />
    <glyph glyph-name="four" unicode="4" horiz-adv-x="545" 
d="M528 297c0 -72 -45 -102 -148 -110c-40 -3 -62 -7 -65 -10c0 -29 12 -85 35 -168c-23 -7 -50 -17 -81 -32c-16 84 -19 110 -30 217c-75 0 -159 -13 -250 -39c37 261 180 432 410 490c-45 -84 -94 -279 -94 -402c0 -13 13 -19 38 -19c122 4 150 9 150 52
c0 11 -3 14 -36 28c15 31 17 35 36 35c15 0 35 -24 35 -42zM336 595c-150 -78 -257 -215 -299 -383c37 17 81 27 133 28c45 1 70 5 75 10c7 99 39 223 91 345z" />
    <glyph glyph-name="five" unicode="5" horiz-adv-x="477" 
d="M435 293c0 -161 -128 -289 -289 -289c-90 0 -135 32 -135 96c0 30 21 51 52 51c37 0 46 -10 47 -51c-44 -4 -54 -5 -54 -32c0 -14 38 -45 90 -45c126 0 225 104 225 237c0 102 -58 174 -142 174c-56 0 -68 -11 -106 -61c-11 -15 -24 -22 -41 -23v270h173
c15 -7 29 -10 42 -10c24 0 36 13 36 40v21h38c21 -7 32 -22 32 -45c0 -43 -43 -64 -128 -64c-55 0 -98 6 -129 19h-39v-147l7 -13c46 32 70 48 72 48c14 6 41 9 82 9c104 0 167 -69 167 -185z" />
    <glyph glyph-name="six" unicode="6" horiz-adv-x="464" 
d="M421 207c0 -116 -74 -212 -193 -212c-75 0 -132 39 -173 117c-31 58 -46 120 -46 185c0 155 146 321 276 321c50 0 97 -34 97 -70c0 -39 -20 -52 -77 -52l-3 13c13 25 20 38 23 39c0 21 -35 45 -65 45c-102 0 -186 -130 -186 -289c0 -143 64 -270 186 -270
c71 0 128 73 128 161c0 82 -60 147 -134 147c-50 0 -62 -12 -94 -64c-32 15 -48 30 -48 45c0 37 65 77 129 77c69 0 180 -31 180 -193z" />
    <glyph glyph-name="seven" unicode="7" horiz-adv-x="427" 
d="M395 620c-184 -231 -240 -324 -240 -445c0 -36 13 -77 40 -122c-11 -7 -34 -24 -71 -52c-31 39 -46 86 -46 142c0 65 25 136 74 213c49 66 97 132 146 199h-174c-44 0 -52 -2 -110 -25v38c0 48 4 51 97 58l174 -19c67 13 68 13 110 13z" />
    <glyph glyph-name="eight" unicode="8" horiz-adv-x="455" 
d="M420 189c0 -106 -93 -186 -218 -186c-110 0 -187 71 -187 172c0 46 15 83 45 111c26 18 52 36 77 54c-16 13 -38 27 -67 42c-49 26 -62 46 -62 109c0 92 63 129 227 134c81 3 130 6 147 10c-28 -45 -58 -67 -90 -67h-161c-26 0 -84 -37 -84 -83c0 -52 52 -89 155 -110
c39 0 96 53 96 97c0 9 0 9 -13 48c7 2 18 3 32 3c21 0 38 -20 38 -45c0 -30 -4 -34 -90 -109c5 -7 23 -18 53 -33c73 -37 102 -78 102 -147zM343 163c0 48 -21 88 -64 119c-32 23 -60 35 -84 35c-55 0 -129 -76 -129 -142c0 -79 62 -140 142 -140c60 0 135 61 135 128z" />
    <glyph glyph-name="nine" unicode="9" horiz-adv-x="473" 
d="M435 317c0 -216 -171 -417 -353 -417c-55 0 -83 17 -83 52c0 9 6 19 19 32h38c0 -52 7 -59 52 -59c143 0 257 158 257 354c0 165 -81 302 -180 302c-57 0 -129 -54 -129 -161c0 -91 62 -174 135 -174c31 0 64 30 64 59c-3 27 -3 29 -3 38c6 1 12 2 18 2
c33 0 49 -22 49 -66c0 -51 -53 -90 -122 -90c-99 0 -172 88 -172 212s76 212 185 212c132 0 225 -122 225 -296z" />
    <glyph glyph-name="colon" unicode=":" horiz-adv-x="182" 
d="M145 300c0 -28 -33 -58 -70 -58c-39 0 -58 21 -58 64s21 64 64 64c38 0 64 -37 64 -70zM139 50c0 -38 -21 -57 -64 -57c-39 0 -64 26 -64 63c0 30 34 59 70 59c39 0 58 -22 58 -65z" />
    <glyph glyph-name="semicolon" unicode=";" horiz-adv-x="182" 
d="M133 309c0 -36 -30 -64 -70 -64c-38 0 -58 30 -58 64s29 64 64 64c34 0 64 -29 64 -64zM139 53c0 -44 -21 -80 -64 -109h-39c16 14 21 20 39 45c-69 37 -70 38 -70 76c0 39 29 71 64 71s70 -40 70 -83z" />
    <glyph glyph-name="less" unicode="&#x3c;" horiz-adv-x="384" 
d="M352 34l-320 167l320 165v-65l-196 -101l196 -101v-65z" />
    <glyph glyph-name="equal" unicode="=" horiz-adv-x="400" 
d="M369 252h-337v64h337v-64zM369 134h-337v64h337v-64z" />
    <glyph glyph-name="greater" unicode="&#x3e;" horiz-adv-x="384" 
d="M352 201l-320 -167v65l196 101l-196 101v65z" />
    <glyph glyph-name="question" unicode="?" horiz-adv-x="455" 
d="M416 525c0 -58 -19 -107 -58 -147c-154 -122 -164 -130 -164 -178c0 -20 8 -45 25 -76c-24 -17 -43 -26 -57 -26c-19 0 -32 47 -32 89c0 41 20 80 59 119c36 32 74 63 111 94c39 39 59 81 59 125c0 74 -65 128 -153 128c-91 0 -172 -80 -172 -134c0 -24 34 -54 64 -54
c23 0 35 11 35 34c0 12 -3 25 -8 40h20c33 0 49 -15 49 -45c0 -37 -42 -64 -96 -64c-44 0 -90 46 -90 89c0 88 97 153 230 153c112 0 178 -55 178 -147zM257 -80c0 -32 -31 -64 -63 -64c-34 0 -64 27 -64 64c0 34 30 64 64 64c32 0 63 -32 63 -64z" />
    <glyph glyph-name="at" unicode="@" horiz-adv-x="720" 
d="M688 312c0 -183 -145 -328 -328 -328s-328 145 -328 328s145 328 328 328s328 -145 328 -328zM624 312c0 151 -114 264 -264 264c-151 0 -264 -114 -264 -264c0 -151 114 -264 264 -264c77 0 141 26 190 79h-64v37c-39 -35 -84 -53 -136 -53c-111 0 -200 89 -200 200
c0 112 88 200 200 200c52 0 97 -18 136 -53v16h64v-310h29c30 45 45 95 45 148zM486 311c0 75 -61 136 -136 136s-136 -61 -136 -136s61 -136 136 -136s136 61 136 136z" />
    <glyph glyph-name="A" unicode="A" horiz-adv-x="677" 
d="M645 0h-130c28 62 30 67 30 89c0 126 -122 284 -262 342c-51 -80 -77 -182 -77 -307c0 -92 19 -121 92 -216c-29 -18 -64 -39 -105 -62c0 71 -5 130 -14 175s-13 86 -13 122c0 97 22 196 66 297c-21 3 -39 5 -52 5c-77 0 -125 -25 -125 -65c0 -9 19 -27 26 -27
c6 5 14 13 25 26c8 -11 12 -22 12 -33c0 -29 -28 -52 -63 -52c-28 0 -59 35 -59 67c0 76 72 124 182 124c34 0 63 -4 77 -7c94 133 222 197 384 197c-17 -28 -25 -54 -25 -79v-524c0 -16 2 -20 31 -72zM541 283v326c-5 9 -14 13 -26 13c-64 0 -153 -66 -217 -154
c81 -25 112 -52 243 -185z" />
    <glyph glyph-name="B" unicode="B" horiz-adv-x="623" 
d="M593 212c0 -80 -61 -187 -142 -244c-60 -43 -133 -64 -218 -64c-133 0 -218 62 -218 160c0 51 24 96 70 96c21 0 39 -21 39 -44c0 -11 -9 -24 -26 -39c-13 13 -21 19 -25 19c-18 0 -27 -15 -27 -45c0 -60 79 -115 168 -115c164 0 295 130 295 289c0 57 -29 119 -68 133
c-66 -57 -73 -62 -112 -62c-34 0 -51 15 -51 44c0 50 10 56 124 73c29 11 43 36 43 75c0 89 -80 155 -186 155c-97 0 -206 -66 -206 -129c0 -12 5 -15 45 -34c-4 -30 -10 -36 -38 -36c-35 0 -52 19 -52 57c0 90 120 180 270 180c142 0 245 -76 245 -180
c0 -39 -2 -51 -44 -105l63 -45c34 -34 51 -80 51 -139zM265 0h-141c36 43 39 49 39 77v386c-4 8 -17 25 -39 51c28 26 67 50 129 81c-24 -98 -27 -114 -27 -139v-405c6 -10 28 -38 39 -51zM387 373c-7 3 -14 5 -23 5c-26 0 -49 -14 -49 -28c0 -10 6 -15 19 -15
c17 0 53 17 53 38z" />
    <glyph glyph-name="C" unicode="C" horiz-adv-x="627" 
d="M616 646c0 -13 -8 -19 -35 -35c-15 54 -21 61 -55 61s-64 -38 -64 -84c0 -15 7 -35 20 -58c-13 -8 -25 -14 -37 -19c-25 92 -70 128 -157 128c-122 0 -212 -118 -212 -276c0 -182 118 -333 264 -333c22 0 51 10 88 29c46 23 67 50 67 79c-1 15 -16 26 -47 32
c5 26 18 39 40 39c25 0 38 -19 38 -58c0 -88 -98 -161 -218 -161c-167 0 -303 156 -303 348c0 188 129 334 297 334c25 0 50 -8 76 -23c27 -15 44 -22 52 -22c5 0 11 7 18 22c24 42 53 61 97 61c35 0 71 -30 71 -64z" />
    <glyph glyph-name="D" unicode="D" horiz-adv-x="650" 
d="M614 366c0 -165 -97 -278 -288 -335c-43 -11 -87 -21 -130 -31h-64c35 32 38 82 38 292c-125 30 -166 65 -166 165c0 123 96 230 282 230s328 -139 328 -321zM530 373c0 170 -102 283 -250 283c-139 0 -251 -84 -251 -187c0 -85 68 -146 126 -146h14
c0 140 -1 173 -17 197c0 17 35 36 83 46c-11 -19 -16 -55 -16 -108c0 -39 3 -82 8 -127c62 10 118 52 118 90c0 13 -5 21 -15 23h-37c9 34 24 51 44 51c37 0 55 -24 55 -71c0 -63 -57 -109 -170 -140l3 -193c-1 0 -4 -15 -10 -45c203 29 313 146 315 327z" />
    <glyph glyph-name="E" unicode="E" horiz-adv-x="632" 
d="M615 562c0 -63 -45 -110 -135 -140c-83 -20 -167 -40 -250 -61c-90 -25 -135 -63 -135 -114c0 -86 142 -210 242 -210c32 0 112 21 138 39c25 19 40 52 44 101c29 -17 30 -20 32 -51c0 -69 -106 -136 -218 -136c-190 0 -321 143 -321 347c0 201 136 354 314 354
c92 0 155 -38 155 -96c0 -39 -14 -52 -58 -52h-32c13 31 19 48 19 52c0 31 -54 57 -109 57c-126 0 -216 -100 -230 -262c0 -20 2 -45 6 -72c36 26 72 52 109 79c43 26 109 47 199 62c128 9 192 37 192 84c0 13 -5 22 -16 29s-16 12 -16 16c0 17 11 26 32 26
c20 0 38 -24 38 -52z" />
    <glyph glyph-name="F" unicode="F" horiz-adv-x="568" 
d="M548 695c0 -48 -64 -90 -135 -90c-14 0 -39 5 -76 15c-37 11 -68 16 -95 16c-19 0 -38 -2 -57 -6v-170c46 -4 46 -4 149 -23c34 0 72 21 72 46c0 7 0 8 -25 29c4 6 15 9 32 9c19 0 28 -4 28 -12c0 -62 -59 -123 -148 -123c-22 0 -58 4 -108 13v-340c0 -1 3 -6 41 -59
h-147c30 41 32 45 32 59v345c-58 -7 -69 -11 -81 -75l-13 12c3 3 4 6 4 29c0 58 14 71 90 96c0 85 -1 132 -3 139c-26 -5 -45 -14 -57 -29c-17 -21 -32 -35 -43 -42v39c63 77 146 116 251 116c34 0 69 -8 218 -40c14 0 46 23 46 33c0 7 -2 9 -27 32c0 7 9 16 27 25
c17 0 25 -15 25 -44z" />
    <glyph glyph-name="G" unicode="G" horiz-adv-x="600" 
d="M564 672c0 -43 -32 -65 -97 -65c-17 0 -45 5 -84 16s-68 16 -87 16c-126 0 -221 -116 -221 -270c0 -187 142 -344 311 -344c29 0 56 6 81 17c-17 39 -26 81 -26 128v180c-19 5 -32 7 -39 7c-15 -7 -16 -7 -25 -7c-17 0 -36 5 -55 16s-35 16 -48 16c-21 0 -32 -9 -32 -26
c0 -13 8 -20 24 -20h21v-31h-52c-16 15 -17 16 -19 45c0 42 38 77 84 77c12 0 33 -5 63 -16c31 -11 61 -16 91 -16c70 7 70 7 83 7c-20 -34 -25 -46 -25 -58v-129c0 -54 11 -112 32 -173c-81 -44 -113 -52 -199 -52c-197 0 -338 147 -341 355c0 163 141 319 296 319l154 -31
c30 0 45 8 45 25c0 6 -3 12 -8 18c-7 8 -13 17 -17 28c11 7 23 13 38 19c18 0 52 -35 52 -51z" />
    <glyph glyph-name="H" unicode="H" horiz-adv-x="676" 
d="M647 0h-139c4 11 11 23 21 34c7 8 11 18 11 30v404c-97 -17 -98 -17 -108 -17c-57 0 -100 6 -128 17c-40 16 -66 25 -79 27v-432c0 -11 0 -11 38 -63h-140c32 48 33 52 33 60c0 287 0 430 -1 430c-52 0 -91 -12 -91 -62c0 -27 9 -33 38 -44c-16 -28 -19 -32 -45 -32
s-53 31 -53 60c0 26 20 75 52 95c18 11 51 20 98 29c0 71 -6 96 -33 137h128c-15 -23 -24 -46 -26 -69l1 -72c129 -40 147 -46 192 -46c63 0 103 9 121 28v57c0 55 0 55 -31 103h135c-31 -40 -32 -42 -32 -52v-564c24 -36 37 -56 38 -58z" />
    <glyph glyph-name="I" unicode="I" horiz-adv-x="195" 
d="M152 0h-141c34 53 34 54 34 58v559c0 3 -11 21 -34 55h128c-31 -43 -32 -46 -32 -59v-546c4 -5 19 -27 45 -67z" />
    <glyph glyph-name="J" unicode="J" horiz-adv-x="209" 
d="M155 98c-19 -10 -41 -35 -64 -76c-65 -109 -88 -144 -145 -144c-26 1 -51 23 -51 45c0 13 15 32 32 32c14 0 17 -3 32 -45c67 19 100 139 100 360c0 139 -1 248 -4 327c-1 13 -15 39 -44 76h144c-26 -33 -29 -38 -29 -49v-438c0 -47 4 -59 29 -88z" />
    <glyph glyph-name="K" unicode="K" horiz-adv-x="623" 
d="M591 -56c0 -27 -7 -34 -40 -34c-65 0 -118 44 -158 133c-16 37 -40 118 -72 245c-20 82 -41 123 -63 123s-106 -44 -144 -83v-193c1 -71 3 -74 51 -135h-160c35 35 37 38 44 66v500c0 41 -13 77 -38 109h134c-30 -43 -33 -47 -33 -84v-207c24 20 65 44 123 73
c141 69 187 100 187 147c0 31 -12 37 -64 52c11 34 33 51 64 51c43 0 71 -38 71 -97c0 -82 -40 -115 -184 -179c45 -36 77 -93 96 -170c13 -64 25 -128 38 -192c19 -68 53 -113 102 -136c0 26 7 39 20 39c21 0 26 -7 26 -28z" />
    <glyph glyph-name="L" unicode="L" horiz-adv-x="550" 
d="M517 157c0 -101 -72 -167 -179 -167c-15 0 -46 6 -94 18c-47 12 -83 18 -108 18c-35 0 -62 -10 -81 -29h-1c-4 0 -22 15 -53 46c47 47 70 85 70 114v433c0 20 -6 28 -47 81l151 1c-22 -25 -33 -50 -33 -74v-435c-8 -42 -20 -79 -30 -87c29 4 54 6 75 6c27 0 56 -4 86 -13
c59 -16 85 -21 109 -23c49 0 101 64 101 111c0 64 -42 109 -108 112c-37 0 -56 -16 -56 -48c0 -24 18 -30 49 -30c-4 -34 -15 -41 -49 -41c-35 0 -64 38 -64 84c0 38 47 84 115 84c82 0 147 -70 147 -161z" />
    <glyph glyph-name="M" unicode="M" horiz-adv-x="709" 
d="M676 0h-137c17 27 19 29 21 62l-72 496c-12 -10 -133 -133 -133 -144c53 -95 59 -107 59 -147c0 -67 -39 -115 -96 -115c-49 0 -90 52 -90 115c0 17 15 70 39 112c-49 54 -97 119 -113 151l-53 -479c1 -17 7 -34 19 -51h-115c36 24 39 60 90 592c0 22 0 23 -35 52
c32 0 80 2 145 4c-23 -19 -34 -33 -34 -43c0 -7 50 -61 150 -164c151 150 156 155 156 164c0 7 -11 22 -32 45h147c-34 -32 -34 -33 -34 -42c0 -3 1 -8 2 -16c67 -559 67 -562 116 -592zM350 248c0 40 -5 50 -45 90c-33 -29 -39 -35 -39 -71c0 -42 19 -70 46 -70
c19 0 38 27 38 51z" />
    <glyph glyph-name="N" unicode="N" horiz-adv-x="582" 
d="M552 0h-115c13 18 23 54 23 85c0 17 -2 77 -8 105c-26 -42 -54 -62 -88 -63c-38 0 -67 28 -67 64c0 32 18 56 40 56c9 0 18 -4 25 -12l-14 -40c0 -11 14 -17 33 -18c22 -1 44 34 44 62c0 32 -22 64 -64 92c-180 106 -205 121 -238 179l-30 -440c1 -19 7 -28 38 -70h-128
c23 13 37 32 47 70l28 380c4 61 7 113 8 156c0 11 -3 20 -31 57h121c-39 -38 -40 -39 -40 -57c0 -40 28 -71 70 -99c180 -101 205 -118 231 -157l-23 259c-2 6 -15 24 -40 54h121c-28 -33 -32 -40 -32 -54c0 -6 12 -158 48 -559c4 -18 10 -23 41 -50z" />
    <glyph glyph-name="O" unicode="O" horiz-adv-x="591" 
d="M556 340c0 -200 -119 -350 -280 -350c-149 0 -268 137 -268 331c0 130 69 273 149 293c-57 -71 -85 -151 -85 -242c0 -172 114 -325 243 -325c106 0 184 102 184 248c0 175 -105 338 -216 338c-39 0 -58 -17 -58 -50c0 -12 20 -32 32 -32c21 9 25 10 32 12
c0 -58 -15 -70 -51 -70c-39 0 -64 38 -64 83c0 55 59 102 128 102c143 0 254 -143 254 -338z" />
    <glyph glyph-name="P" unicode="P" horiz-adv-x="591" 
d="M544 432c0 -168 -137 -331 -261 -331c-49 0 -89 37 -89 83c0 31 15 46 46 46c6 0 12 -1 17 -2c-18 -32 -19 -36 -19 -44c0 -21 28 -45 70 -45c82 0 159 120 159 286c0 99 -51 230 -159 230c-69 0 -146 -67 -146 -128v-541c0 -64 -57 -127 -115 -127c-19 0 -33 9 -44 26
v31h51c36 0 38 12 38 39v617c-80 0 -102 8 -102 38c0 21 6 26 41 32c5 -23 8 -36 10 -37h32c17 0 51 12 102 37s101 38 152 38c115 0 217 -85 217 -248z" />
    <glyph glyph-name="Q" unicode="Q" horiz-adv-x="605" 
d="M615 -76c0 -29 -32 -52 -71 -52c-62 0 -124 42 -179 123c-4 0 -21 -1 -92 -6c-68 0 -102 28 -102 83c-9 -6 -15 -13 -16 -20c-80 40 -144 174 -144 297c0 185 118 327 283 327c166 -2 270 -124 270 -313c0 -93 -21 -170 -58 -225c-28 -33 -56 -66 -83 -99
c67 -96 100 -133 125 -133c8 0 18 14 18 25s-6 21 -18 30c12 6 22 9 31 9c24 0 36 -15 36 -46zM493 329c0 165 -111 315 -218 315c-114 0 -187 -100 -187 -251c0 -99 20 -154 90 -301c43 21 69 31 79 31c46 0 88 -13 127 -38c19 0 42 28 69 84c27 57 40 110 40 160zM340 43
c-23 29 -51 43 -85 43c-26 0 -37 -9 -39 -32c0 -21 19 -31 55 -31c29 0 52 7 69 20z" />
    <glyph glyph-name="R" unicode="R" horiz-adv-x="623" 
d="M608 -123c-112 0 -174 58 -210 194c-20 75 -31 114 -33 119l-59 -5c-48 0 -71 15 -71 46c0 26 30 46 70 46c14 0 30 -6 49 -17s32 -16 41 -16c37 0 110 93 110 180c0 124 -94 219 -231 219c-40 0 -87 -11 -142 -32c-69 -27 -103 -60 -103 -97c0 -19 11 -29 32 -29
c11 0 21 3 28 10c0 -34 -11 -51 -34 -51c-26 0 -51 24 -51 57c0 93 134 174 295 174c166 0 276 -95 276 -238c0 -113 -51 -158 -160 -238c20 -30 41 -74 62 -132c46 -125 72 -160 131 -160c17 0 25 17 25 42c26 -4 32 -11 32 -29c0 -30 -33 -43 -57 -43zM242 0h-142
c21 21 32 38 32 51v425c0 11 -2 15 -27 46l114 79c-11 -33 -16 -56 -16 -67v-483c0 -13 5 -18 39 -51zM345 224c-19 17 -35 25 -48 25c-16 0 -24 -8 -24 -23c0 -10 10 -15 29 -15s33 4 43 13z" />
    <glyph glyph-name="S" unicode="S" horiz-adv-x="564" 
d="M532 241c0 -94 -43 -251 -277 -251c-151 0 -250 76 -250 193c0 85 86 154 192 154c87 0 161 -45 161 -115c0 -59 -45 -97 -115 -97c-50 0 -97 28 -97 58c0 25 16 42 48 51c8 -43 24 -65 49 -65c32 0 62 29 62 59c0 48 -52 84 -120 84c-82 0 -149 -60 -149 -136
c0 -109 128 -160 226 -160c119 0 218 87 218 193c0 57 -32 108 -95 152c-59 33 -117 65 -176 98c-63 37 -95 75 -95 116c0 59 75 110 167 110c83 0 142 -32 142 -78c0 -18 -22 -32 -52 -32c-4 0 -6 3 -6 8c0 3 1 13 3 30c0 35 -31 52 -93 52c-59 0 -110 -29 -110 -64
c0 -28 32 -57 95 -88c213 -103 272 -154 272 -272z" />
    <glyph glyph-name="T" unicode="T" horiz-adv-x="555" 
d="M549 700c-1 -53 -80 -94 -181 -94c-17 0 -33 1 -50 3v-558c0 -11 1 -13 32 -51h-141c31 43 36 52 36 64l-2 554c-57 14 -73 17 -118 17c-44 0 -83 -21 -83 -45c0 -13 12 -18 45 -18c-1 -20 -21 -40 -39 -40c-25 0 -38 17 -38 52c0 69 113 103 205 103c41 0 87 -6 138 -17
s85 -16 100 -16c34 0 51 11 51 33c0 10 -8 18 -23 24c0 17 6 26 19 26c21 0 49 -12 49 -37z" />
    <glyph glyph-name="U" unicode="U" horiz-adv-x="591" 
d="M578 48c-11 -34 -32 -51 -63 -51c-28 0 -35 8 -81 76c-111 -73 -126 -83 -189 -83c-135 0 -239 126 -239 290c0 95 32 166 117 265c35 39 56 66 63 81h-24c-26 0 -34 2 -104 26c-9 0 -20 -12 -20 -21c0 -6 3 -9 11 -9c5 0 13 1 22 4c3 -9 4 -17 4 -23
c0 -16 -11 -26 -26 -26c-20 0 -30 14 -30 43c0 38 39 70 84 70c67 -17 92 -23 96 -23c9 0 20 3 33 8c11 4 15 5 53 5c-3 -9 -23 -34 -61 -77c-105 -120 -147 -207 -147 -304c0 -140 91 -251 206 -251c37 0 154 60 154 96v347c0 135 -6 148 -38 190c19 3 64 4 135 4
c-28 -28 -32 -37 -32 -97v-425c0 -79 24 -115 76 -115z" />
    <glyph glyph-name="V" unicode="V" horiz-adv-x="568" 
d="M412 309c-96 -165 -154 -274 -174 -327c-70 122 -91 203 -160 518c-19 87 -39 146 -58 176h128c-21 -24 -32 -43 -32 -58c56 -273 104 -443 139 -482c203 339 223 375 223 450c0 65 -32 122 -92 122c-30 0 -58 -19 -58 -45c0 -17 7 -26 20 -26c8 0 18 3 29 10
c8 -9 12 -19 12 -28c0 -18 -19 -33 -41 -33c-35 0 -52 21 -52 64c0 61 62 90 109 90c21 0 43 -8 66 -23c41 -27 61 -71 61 -132c0 -47 -36 -130 -120 -276z" />
    <glyph glyph-name="W" unicode="W" horiz-adv-x="750" 
d="M722 559c0 -63 -29 -159 -87 -286l-135 -279l-150 318l-158 -325c-172 475 -183 506 -188 589c0 64 37 119 91 119c29 1 32 -2 32 -29c-49 0 -70 -16 -70 -81c0 -63 121 -388 163 -430c28 43 63 117 106 220c-41 144 -44 154 -44 184c0 59 38 109 83 109
c52 0 78 -32 78 -96c0 -41 -6 -57 -46 -167l123 -270c109 245 141 319 141 409c0 66 -22 99 -65 99c-20 0 -23 -3 -51 -32c-19 29 -20 30 -20 34c0 34 31 56 78 56c66 0 119 -62 119 -142zM397 559c0 45 -9 67 -27 67c-23 0 -35 -16 -35 -47c0 -40 17 -97 31 -117
c21 32 31 64 31 97z" />
    <glyph glyph-name="X" unicode="X" horiz-adv-x="559" 
d="M550 0h-155c9 7 14 15 14 24s-4 17 -12 25c-42 56 -95 140 -160 251c-76 -56 -143 -164 -143 -239c0 -22 1 -23 26 -61h-115c24 45 40 82 48 113c21 74 54 120 166 237c-51 95 -93 195 -112 266c-5 10 -8 13 -39 48h135c-19 -47 -19 -48 -19 -58c0 -20 78 -204 96 -204
c153 124 174 145 174 192c0 25 -20 44 -46 44c-27 0 -35 -5 -47 -27c-7 16 -10 30 -10 40c0 22 15 52 76 52c56 0 84 -32 84 -97c0 -46 -39 -95 -157 -197c-37 -31 -55 -51 -55 -59c0 -21 135 -266 251 -350z" />
    <glyph glyph-name="Y" unicode="Y" horiz-adv-x="541" 
d="M509 682c0 -198 -28 -430 -71 -595c-38 -144 -114 -238 -193 -238c-42 0 -77 34 -77 77c0 11 3 16 8 16c50 -26 54 -28 63 -28c37 0 75 28 112 83c37 54 52 99 52 148c-93 -53 -103 -58 -151 -58c-105 0 -180 109 -180 245c0 77 12 106 77 260c-23 3 -36 5 -53 5
c-15 -1 -29 -2 -31 -2c-13 12 -16 14 -17 14c-6 0 -11 -11 -15 -34c12 -5 23 -11 32 -19c-13 -13 -23 -19 -32 -19c-10 0 -26 24 -26 38c0 70 74 71 199 71c-55 -117 -70 -168 -70 -257c0 -144 60 -231 160 -231c99 0 168 124 168 302c0 58 -12 92 -55 199
c33 9 66 17 100 23z" />
    <glyph glyph-name="Z" unicode="Z" horiz-adv-x="577" 
d="M542 124c0 -71 -79 -134 -161 -134c-21 0 -61 10 -121 31s-99 32 -117 32c-30 0 -56 -10 -77 -31s-41 -32 -61 -34c-3 4 -4 11 -4 21c0 77 74 217 179 308c208 165 233 189 272 266c-23 -2 -45 -3 -66 -3c-53 0 -104 8 -153 25c-40 13 -67 20 -80 20
c-42 0 -93 -34 -93 -83c0 -33 15 -50 46 -50c11 0 30 11 30 28c0 11 -8 22 -24 32c5 14 15 21 32 21c33 0 51 -19 51 -57c0 -35 -35 -64 -78 -64c-42 0 -83 46 -83 90c0 64 74 136 146 136c25 0 62 -8 116 -26c38 -13 68 -19 91 -19c37 0 78 14 122 41
c0 -134 -61 -201 -254 -352c-136 -106 -183 -166 -189 -236c9 0 23 5 44 15c21 11 47 16 78 16c40 0 86 -13 138 -40c53 -27 84 -40 93 -40c44 0 77 26 77 62c0 32 -24 57 -57 57c-3 0 -9 -3 -58 -26c-4 15 -6 27 -6 37c0 32 25 53 70 53c54 0 97 -43 97 -96z" />
    <glyph glyph-name="bracketleft" unicode="[" horiz-adv-x="272" 
d="M241 -64h-209v808h209v-64h-145v-680h145v-64z" />
    <glyph glyph-name="backslash" unicode="\" horiz-adv-x="496" 
d="M499 -56h-74l-425 736h74z" />
    <glyph glyph-name="bracketright" unicode="]" horiz-adv-x="272" 
d="M241 -64h-209v64h145v680h-145v64h209v-808z" />
    <glyph glyph-name="asciicircum" unicode="^" horiz-adv-x="264" 
d="M231 550h-64l-33 65l-34 -65h-64l66 129h62z" />
    <glyph glyph-name="underscore" unicode="_" horiz-adv-x="400" 
d="M400 -223h-400v64h400v-64z" />
    <glyph glyph-name="grave" unicode="`" horiz-adv-x="333" 
d="M235 513l-30 -26c-40 30 -90 61 -151 94c24 24 42 36 53 36c22 0 114 -81 128 -104z" />
    <glyph glyph-name="a" unicode="a" 
d="M419 0h-71c-11 8 -11 9 -25 61c-31 -47 -78 -71 -141 -71c-107 0 -179 67 -179 166c0 86 96 166 211 166c19 0 44 -4 77 -12c-20 71 -101 141 -166 141c-41 0 -71 -24 -71 -58c0 -21 6 -31 18 -31c18 0 20 9 26 38h27c5 -7 7 -16 7 -29c0 -37 -16 -55 -47 -55
c-35 0 -70 36 -70 71c0 48 64 90 135 90c123 0 198 -87 239 -276c5 -25 15 -92 30 -201zM329 162c0 67 -53 116 -122 116c-107 0 -128 -70 -128 -116c0 -57 61 -114 122 -114c60 0 128 56 128 114z" />
    <glyph glyph-name="b" unicode="b" horiz-adv-x="473" 
d="M427 245c0 -127 -106 -255 -204 -255c-42 0 -83 19 -124 59c0 -20 -7 -29 -45 -63c-22 26 -38 46 -48 60c37 16 44 22 44 46v440c0 26 -4 29 -45 33c17 19 48 55 92 107v-307c57 58 112 86 164 86c108 0 166 -71 166 -206zM375 239c0 106 -52 173 -133 173
c-65 0 -143 -64 -143 -109v-222c28 -28 88 -65 117 -65c94 0 159 95 159 223z" />
    <glyph glyph-name="c" unicode="c" 
d="M419 117c-36 -77 -115 -128 -199 -128c-137 16 -212 99 -212 237c0 131 113 251 237 251c75 0 142 -54 142 -116c0 -59 -39 -96 -102 -96c-49 0 -78 26 -78 70c0 33 1 34 38 52c9 -30 13 -46 13 -47c7 -11 20 -17 39 -17c21 0 45 21 45 51c0 41 -41 77 -90 77
c-99 0 -192 -94 -192 -192c0 -111 90 -212 192 -212c28 0 58 10 91 30c39 24 65 37 76 40z" />
    <glyph glyph-name="d" unicode="d" horiz-adv-x="482" 
d="M455 41c0 -12 -23 -38 -52 -38c-13 0 -30 19 -51 57c-9 -3 -21 -11 -36 -24c-41 -36 -65 -46 -112 -46c-109 0 -193 102 -193 244c0 131 90 231 212 231c15 0 36 -5 61 -16c25 -10 44 -15 55 -16v142c-16 10 -17 10 -41 6h2c33 43 67 80 103 109v-450
c0 -135 12 -149 52 -199zM339 144v186c-35 80 -62 103 -123 103c-82 0 -141 -73 -141 -173c0 -126 77 -213 154 -213c48 0 110 53 110 97z" />
    <glyph glyph-name="e" unicode="e" horiz-adv-x="455" 
d="M425 113c-19 -73 -100 -123 -199 -123c-42 0 -51 4 -116 32c-21 -18 -32 -35 -32 -51c0 -12 4 -20 13 -25s13 -11 13 -20v-26c-43 1 -64 18 -64 52c0 18 3 24 38 96c-58 81 -71 99 -71 180c0 134 99 238 226 238c44 0 93 -15 147 -45l-225 -335c26 -25 63 -38 110 -38
c57 0 76 10 160 65zM284 376c0 32 -40 58 -84 58c-69 0 -141 -86 -141 -174c0 -50 25 -107 61 -141c61 61 164 232 164 257z" />
    <glyph glyph-name="f" unicode="f" horiz-adv-x="289" 
d="M265 613c0 -25 -29 -51 -51 -51c-19 0 -44 21 -44 37c0 14 5 21 14 21c18 -8 20 -9 26 -9c3 0 7 1 10 2c1 5 2 10 2 14c0 17 -11 25 -34 25c-38 0 -43 -26 -44 -123c0 -85 4 -88 43 -88c31 0 49 -14 55 -41c-19 3 -37 4 -53 4c-24 0 -37 -3 -39 -10v-391
c0 -121 -59 -212 -142 -219v58c69 47 84 62 84 128v430h-44c-27 0 -45 14 -52 41c19 -2 35 -3 47 -3c42 0 43 1 44 78c2 110 35 155 114 155c35 0 64 -26 64 -58z" />
    <glyph glyph-name="g" unicode="g" horiz-adv-x="495" 
d="M466 -22c0 -96 -117 -173 -262 -173c-108 0 -187 49 -187 116c0 31 32 57 71 57c18 0 27 -5 45 -25v-38c-29 17 -33 19 -45 19c-13 0 -32 -15 -32 -32c0 -37 66 -71 135 -71c122 0 199 57 199 147c0 78 -49 117 -148 117c-36 0 -66 -8 -91 -23s-41 -23 -50 -23
c-5 0 -13 6 -26 19c72 62 78 68 80 97c-100 44 -150 97 -150 160c0 84 93 154 205 154h103c7 -8 13 -12 18 -12c9 0 14 13 14 38c0 21 -7 25 -64 39c11 34 17 38 44 38c35 0 52 -24 52 -71c0 -10 0 -11 -13 -64c0 -5 11 -20 32 -46s32 -53 32 -82c0 -80 -38 -108 -173 -151
c-44 -13 -69 -29 -74 -48h81c136 -6 204 -54 204 -142zM351 325c0 52 -27 83 -32 83c-37 -8 -38 -8 -48 -8c-23 0 -41 9 -55 28c9 1 26 7 52 17c-31 6 -49 9 -52 9c-76 0 -141 -59 -141 -129c0 -60 39 -120 78 -120c6 0 12 2 19 5c0 1 -1 8 -7 25c0 15 37 39 67 39v-84
c73 12 119 65 119 135z" />
    <glyph glyph-name="h" unicode="h" horiz-adv-x="468" 
d="M439 -12c-84 7 -120 8 -144 6h2c52 99 78 182 78 250c0 99 -52 167 -129 167c-59 0 -116 -51 -116 -96v-257c0 -20 11 -39 33 -58h-123c17 17 26 32 26 45v521h-51c31 48 84 101 109 109v-276c15 3 38 17 71 40c28 20 56 30 83 30c96 0 155 -73 155 -192
c0 -54 -13 -90 -71 -226c3 -1 4 -2 8 -8c2 0 24 5 65 15c0 -25 1 -49 4 -70z" />
    <glyph glyph-name="i" unicode="i" horiz-adv-x="159" 
d="M92 572c0 -22 -11 -33 -32 -33s-32 11 -32 33c0 18 15 32 32 32c22 0 32 -11 32 -32zM125 0h-110c19 52 20 55 20 57v219c0 59 -11 100 -33 122c25 26 55 45 90 58v-328c0 -49 11 -92 33 -128z" />
    <glyph glyph-name="j" unicode="j" horiz-adv-x="175" 
d="M120 587c0 -16 -16 -32 -33 -32c-20 0 -38 18 -38 39c0 13 26 31 45 31c11 0 26 -22 26 -38zM140 -25c-9 -7 -29 -37 -60 -89c-29 -48 -50 -63 -76 -64c-15 0 -15 1 -19 33c3 0 3 0 10 7c3 0 12 -5 29 -14c25 8 38 31 38 70v457c0 14 -27 38 -48 43c24 14 57 36 100 67
v-477c6 -23 15 -33 26 -33z" />
    <glyph glyph-name="k" unicode="k" 
d="M420 39c0 -26 -4 -52 -38 -52c-27 0 -50 15 -70 46c-75 131 -97 164 -161 198h-39v-168c0 -17 11 -38 33 -63h-123c32 40 33 41 33 51v513c-11 5 -19 8 -24 9h2c0 -1 -8 -1 -24 -2c24 43 56 77 96 102v-385c92 0 200 91 200 148c0 15 -14 32 -26 32c-1 0 -12 -6 -33 -19
c-7 11 -10 21 -10 31c0 25 26 53 49 53c43 0 64 -26 64 -78c0 -43 -24 -84 -73 -122c-33 -23 -67 -47 -100 -70c92 -70 93 -70 179 -225c4 -7 13 -10 28 -10s27 4 37 11z" />
    <glyph glyph-name="l" unicode="l" horiz-adv-x="186" 
d="M151 0h-116c24 50 26 56 26 96v444c0 21 -15 32 -46 32c25 47 58 79 97 96v-617c0 -5 12 -19 39 -51z" />
    <glyph glyph-name="m" unicode="m" horiz-adv-x="650" 
d="M617 296c0 -56 -21 -104 -102 -244c14 -3 26 -5 34 -5c3 0 4 0 36 5v-58c-35 6 -36 6 -122 6c70 178 77 196 77 270c0 89 -43 148 -109 148c-27 0 -71 -36 -71 -58c13 -48 20 -78 20 -90c-24 -151 -61 -243 -104 -260c25 120 27 132 27 208c0 133 -30 187 -103 187
c-63 0 -90 -46 -90 -154c0 -189 8 -217 45 -251h-122c7 13 14 24 21 33c3 3 4 10 4 19v263c0 27 -9 50 -26 69s-26 31 -26 34c11 21 24 32 39 32c9 0 21 -10 36 -29s24 -29 29 -29c3 0 10 6 20 18c32 39 61 53 108 53c27 0 44 -11 109 -52c60 47 77 58 116 58
c78 0 154 -80 154 -173z" />
    <glyph glyph-name="n" unicode="n" horiz-adv-x="464" 
d="M431 269c0 -61 -14 -109 -48 -162c-11 -17 -17 -28 -17 -33c0 -17 2 -19 42 -45c-58 -25 -90 -38 -133 -42c89 162 98 181 98 256c0 98 -59 174 -136 174c-70 0 -122 -61 -122 -142v-207c0 -39 0 -43 38 -68h-142c28 34 38 52 38 74v220c0 85 -6 92 -38 130
c17 26 29 39 38 39c14 0 27 -12 72 -65c47 47 92 71 135 71c108 0 175 -78 175 -200z" />
    <glyph glyph-name="o" unicode="o" horiz-adv-x="509" 
d="M478 234c0 -133 -110 -244 -243 -244c-135 0 -231 109 -231 244c0 126 114 238 243 238c128 0 231 -106 231 -238zM427 195c0 89 -99 225 -218 225c-62 0 -148 -72 -148 -141c0 -111 109 -237 205 -237c80 0 161 79 161 153z" />
    <glyph glyph-name="p" unicode="p" horiz-adv-x="473" 
d="M446 258c0 -154 -98 -268 -229 -268c-18 0 -49 10 -92 29v-92c0 -27 2 -31 29 -64c-49 -37 -68 -48 -99 -57l-2 554c0 20 -12 30 -53 58c35 44 35 44 52 44c13 0 22 -10 73 -70c78 68 93 77 150 77c110 0 171 -76 171 -211zM384 249c0 97 -59 173 -135 173
c-38 0 -124 -59 -124 -132v-211c9 5 22 9 41 13c12 -58 17 -70 58 -70c82 0 159 115 160 227z" />
    <glyph glyph-name="q" unicode="q" horiz-adv-x="477" 
d="M445 420c0 -5 -4 -10 -13 -15c-28 -18 -38 -44 -38 -101v-353c0 -27 16 -69 32 -84l-97 -64l-6 13c9 39 13 73 13 103c0 7 -3 45 -10 115c-82 -41 -88 -44 -131 -44c-96 0 -187 100 -187 237c0 106 64 245 206 245c44 0 87 -20 129 -59c43 48 53 59 70 59
c21 -18 32 -35 32 -52zM323 112v211c0 60 -56 117 -116 117c-70 0 -128 -83 -128 -174c0 -111 72 -213 147 -213c35 0 49 11 97 59z" />
    <glyph glyph-name="r" unicode="r" horiz-adv-x="377" 
d="M356 398c0 -43 -19 -64 -57 -64c-13 0 -28 6 -45 19c6 6 18 14 35 26c3 2 4 6 4 13c0 21 -17 32 -52 32c-53 0 -109 -61 -109 -122v-193c0 -40 11 -76 32 -109h-122c18 19 29 43 33 73c0 226 -12 303 -53 327c-12 7 -18 12 -18 17c0 9 32 45 44 45c20 0 34 -12 80 -70
c79 67 90 76 138 76c49 0 90 -27 90 -70z" />
    <glyph glyph-name="s" unicode="s" horiz-adv-x="423" 
d="M390 161c0 -93 -109 -171 -242 -171c-94 0 -141 45 -141 114c0 50 51 95 109 95c64 0 96 -20 96 -59c0 -29 -5 -36 -32 -55h-51c2 5 4 9 19 38c0 21 -17 32 -52 32c-39 0 -70 -28 -70 -64c0 -40 48 -65 122 -65c109 0 191 52 191 122c0 37 -26 63 -79 78
c-49 11 -99 21 -148 32c-53 18 -79 49 -79 94c0 71 77 121 185 121c81 0 121 -25 121 -76c0 -29 -42 -58 -83 -58c-42 0 -63 17 -63 52c0 14 0 15 28 32c12 -20 24 -31 35 -32c12 0 26 17 26 32c0 18 -32 32 -70 32c-72 0 -135 -37 -135 -83c0 -42 12 -45 232 -96
c54 -23 81 -61 81 -115z" />
    <glyph glyph-name="t" unicode="t" horiz-adv-x="227" 
d="M187 431h-51v-316c0 -24 15 -47 45 -70c-21 -30 -38 -45 -51 -45c-31 0 -65 82 -65 166v264c-11 1 -23 3 -34 5c-5 0 -13 -2 -24 -5v33c57 4 58 4 58 38c0 10 0 10 -19 45l85 90v-151c0 -13 2 -14 56 -16v-38z" />
    <glyph glyph-name="u" unicode="u" horiz-adv-x="450" 
d="M429 52c-15 -33 -30 -49 -44 -49c-11 0 -26 10 -45 29c-18 19 -29 29 -33 29c-5 0 -12 -6 -23 -18c-32 -38 -66 -53 -118 -53c-87 0 -166 89 -166 193c0 49 36 145 83 222c-15 4 -25 6 -31 6c-27 -4 -28 -4 -39 -4v55c13 -2 131 -6 134 -6c-76 -141 -90 -169 -90 -229
c0 -104 58 -179 141 -179c59 0 109 49 109 108v245c0 14 -1 16 -32 57h122c-29 -29 -29 -33 -32 -90v-224c0 -21 38 -79 64 -92z" />
    <glyph glyph-name="v" unicode="v" horiz-adv-x="436" 
d="M404 403c0 -72 -154 -361 -206 -411c-57 75 -88 149 -146 336c-18 59 -34 99 -47 119h122c-24 -44 -25 -46 -25 -63c0 -64 63 -252 112 -303c42 40 139 256 139 315c0 43 -13 65 -38 65c-4 0 -15 -11 -33 -33c-8 14 -12 24 -12 31c0 5 2 7 5 8c0 35 13 45 52 45
c45 0 77 -46 77 -109z" />
    <glyph glyph-name="w" unicode="w" horiz-adv-x="605" 
d="M565 419c0 -70 -10 -90 -177 -424c-23 67 -57 154 -101 260l-120 -270c-122 432 -126 446 -158 478h115c-23 -28 -23 -29 -23 -40c47 -178 75 -267 91 -285c21 47 60 136 116 267l98 -281c29 20 114 216 114 295c0 43 -12 64 -37 64c-8 0 -16 -9 -24 -27
c-23 5 -34 16 -34 33c0 26 30 49 63 49c55 0 76 -34 77 -119z" />
    <glyph glyph-name="x" unicode="x" horiz-adv-x="423" 
d="M394 0l-130 -1l5 12c-1 0 -1 0 -2 14c0 50 -78 143 -91 152c-66 -66 -93 -118 -85 -151c1 -3 8 -10 21 -22c-12 -2 -20 -8 -112 -69c17 87 44 152 79 195c26 26 52 52 78 79c-5 8 -46 86 -125 234h121c-15 -24 -23 -37 -23 -38c0 -6 25 -89 78 -142
c75 64 113 115 113 154c0 12 -14 38 -32 38c-7 -2 -8 -2 -10 -2c-5 0 -15 1 -29 2c5 46 18 59 58 59s65 -30 65 -78c0 -54 -23 -84 -148 -212z" />
    <glyph glyph-name="y" unicode="y" 
d="M412 463c-25 -33 -37 -51 -37 -54c4 -29 4 -29 5 -172c0 -237 -8 -301 -59 -363c-33 -41 -84 -61 -153 -61c-41 0 -71 22 -71 51c0 15 20 28 61 38c7 -57 8 -57 48 -57c49 0 71 19 109 95v115l-6 13c-80 -59 -85 -63 -141 -63c-97 0 -160 79 -160 198c0 52 5 67 57 192
c-5 2 -21 11 -48 26c34 16 72 29 113 38c-1 -16 -13 -47 -34 -92s-31 -93 -31 -145c0 -95 58 -167 135 -167c63 0 115 55 115 122v231c0 13 -2 18 -31 55c42 4 64 7 69 8c15 0 34 -3 59 -8z" />
    <glyph glyph-name="z" unicode="z" horiz-adv-x="432" 
d="M395 108c0 -69 -45 -103 -134 -103c-27 0 -31 1 -147 25c-17 0 -36 -6 -55 -19c-23 -15 -42 -24 -55 -27c76 190 103 237 172 312c40 44 76 88 108 133h-75c-40 0 -74 -8 -103 -24c-37 -21 -63 -33 -77 -36c13 44 32 83 55 118c25 -17 43 -25 56 -25c1 0 17 3 25 6h230
c-195 -220 -256 -304 -280 -385l190 -39c43 9 65 24 65 45c0 12 -19 32 -33 32c-17 -17 -21 -21 -51 -26v51c22 22 23 23 51 27c39 0 58 -22 58 -65z" />
    <glyph glyph-name="braceleft" unicode="{" horiz-adv-x="304" 
d="M268 -113c-64 0 -112 48 -112 113v283l-124 65l124 64v268c0 64 49 113 112 113v-64c-27 0 -48 -21 -48 -49v-300l-64 -33l64 -33v-314c0 -28 21 -49 48 -49v-64z" />
    <glyph glyph-name="bar" unicode="|" horiz-adv-x="128" 
d="M96 -64h-64v808h64v-808z" />
    <glyph glyph-name="braceright" unicode="}" horiz-adv-x="304" 
d="M268 348l-124 -65v-283c0 -65 -48 -113 -112 -113v64c26 0 48 22 48 49v314l64 33l-64 33v300c0 28 -21 49 -48 49v64c64 0 112 -49 112 -113v-268z" />
    <glyph glyph-name="asciitilde" unicode="~" horiz-adv-x="417" 
d="M382 696c0 -66 -50 -116 -116 -116c-22 0 -44 8 -67 25s-40 25 -51 25c-28 0 -52 -24 -52 -52h-64c0 66 50 116 116 116c16 0 35 -8 58 -25s43 -25 60 -25c29 0 52 22 52 52h64z" />
    <glyph glyph-name="Adieresis" unicode="&#xc4;" horiz-adv-x="677" 
d="M645 0h-130c28 62 30 67 30 89c0 126 -122 284 -262 342c-51 -80 -77 -182 -77 -307c0 -92 19 -121 92 -216c-29 -18 -64 -39 -105 -62c0 71 -5 130 -14 175s-13 86 -13 122c0 97 22 196 66 297c-21 3 -39 5 -52 5c-77 0 -125 -25 -125 -65c0 -9 19 -27 26 -27
c6 5 14 13 25 26c8 -11 12 -22 12 -33c0 -29 -28 -52 -63 -52c-28 0 -59 35 -59 67c0 76 72 124 182 124c34 0 63 -4 77 -7c94 133 222 197 384 197c-17 -28 -25 -54 -25 -79v-524c0 -16 2 -20 31 -72zM541 283v326c-5 9 -14 13 -26 13c-64 0 -153 -66 -217 -154
c81 -25 112 -52 243 -185zM551 771c0 -27 -22 -49 -50 -49s-50 22 -50 49s23 50 50 50s50 -23 50 -50zM393 771c0 -27 -22 -49 -50 -49s-50 22 -50 49s23 50 50 50s50 -23 50 -50z" />
    <glyph glyph-name="Aring" unicode="&#xc5;" horiz-adv-x="677" 
d="M645 0h-130c28 62 30 67 30 89c0 126 -122 284 -262 342c-51 -80 -77 -182 -77 -307c0 -92 19 -121 92 -216c-29 -18 -64 -39 -105 -62c0 71 -5 130 -14 175s-13 86 -13 122c0 97 22 196 66 297c-21 3 -39 5 -52 5c-77 0 -125 -25 -125 -65c0 -9 19 -27 26 -27
c6 5 14 13 25 26c8 -11 12 -22 12 -33c0 -29 -28 -52 -63 -52c-28 0 -59 35 -59 67c0 76 72 124 182 124c34 0 63 -4 77 -7c94 133 222 197 384 197c-17 -28 -25 -54 -25 -79v-524c0 -16 2 -20 31 -72zM541 283v326c-5 9 -14 13 -26 13c-64 0 -153 -66 -217 -154
c81 -25 112 -52 243 -185zM544 788c0 -39 -31 -69 -72 -70c-39 0 -69 30 -70 71c0 31 23 70 71 71c31 0 70 -23 71 -72zM473 831c-23 0 -40 -17 -40 -41s20 -40 42 -40c23 1 39 19 39 41c0 23 -18 40 -41 40z" />
    <glyph glyph-name="Ccedilla" unicode="&#xc7;" horiz-adv-x="627" 
d="M616 653c0 -13 -8 -19 -35 -35c-15 54 -21 61 -55 61s-64 -38 -64 -84c0 -15 7 -35 20 -58c-13 -8 -25 -14 -37 -19c-25 92 -70 128 -157 128c-122 0 -212 -118 -212 -276c0 -182 118 -333 264 -333c22 0 51 10 88 29c46 23 67 50 67 79c-1 15 -16 26 -47 32
c5 26 18 39 40 39c25 0 38 -19 38 -58c0 -82 -91 -156 -200 -161l-6 -18c44 -5 66 -24 67 -57c0 -46 -45 -74 -121 -75c-15 0 -31 2 -48 5l4 45h37c42 0 63 10 63 29c0 17 -14 23 -62 26l14 47c-151 20 -269 170 -269 346c0 188 129 334 297 334c25 0 50 -8 76 -23
c27 -15 44 -22 52 -22c5 0 11 7 18 22c24 42 53 61 97 61c35 0 71 -30 71 -64z" />
    <glyph glyph-name="Eacute" unicode="&#xc9;" horiz-adv-x="632" 
d="M615 562c0 -63 -45 -110 -135 -140c-83 -20 -167 -40 -250 -61c-90 -25 -135 -63 -135 -114c0 -86 142 -210 242 -210c32 0 112 21 138 39c25 19 40 52 44 101c29 -17 30 -20 32 -51c0 -69 -106 -136 -218 -136c-190 0 -321 143 -321 347c0 201 136 354 314 354
c92 0 155 -38 155 -96c0 -39 -14 -52 -58 -52h-32c13 31 19 48 19 52c0 31 -54 57 -109 57c-126 0 -216 -100 -230 -262c0 -20 2 -45 6 -72c36 26 72 52 109 79c43 26 109 47 199 62c128 9 192 37 192 84c0 13 -5 22 -16 29s-16 12 -16 16c0 17 11 26 32 26
c20 0 38 -24 38 -52zM469 815c-61 -33 -111 -64 -151 -94l-30 26c14 23 106 104 128 104c11 0 29 -12 53 -36z" />
    <glyph glyph-name="Ntilde" unicode="&#xd1;" horiz-adv-x="582" 
d="M552 0h-115c13 18 23 54 23 85c0 17 -2 77 -8 105c-26 -42 -54 -62 -88 -63c-38 0 -67 28 -67 64c0 32 18 56 40 56c9 0 18 -4 25 -12l-14 -40c0 -11 14 -17 33 -18c22 -1 44 34 44 62c0 32 -22 64 -64 92c-180 106 -205 121 -238 179l-30 -440c1 -19 7 -28 38 -70h-128
c23 13 37 32 47 70l28 380c4 61 7 113 8 156c0 11 -3 20 -31 57h121c-39 -38 -40 -39 -40 -57c0 -40 28 -71 70 -99c180 -101 205 -118 231 -157l-23 259c-2 6 -15 24 -40 54h121c-28 -33 -32 -40 -32 -54c0 -6 12 -158 48 -559c4 -18 10 -23 41 -50zM426 795
c-19 -48 -47 -72 -86 -72c-18 0 -32 5 -116 35c-15 0 -30 -11 -43 -34l-22 16c11 46 37 69 78 69c11 0 32 -6 64 -19c25 -10 44 -15 57 -15c19 0 35 11 46 34z" />
    <glyph glyph-name="Odieresis" unicode="&#xd6;" horiz-adv-x="591" 
d="M556 340c0 -200 -119 -350 -280 -350c-149 0 -268 137 -268 331c0 130 69 273 149 293c-57 -71 -85 -151 -85 -242c0 -172 114 -325 243 -325c106 0 184 102 184 248c0 175 -105 338 -216 338c-39 0 -58 -17 -58 -50c0 -12 20 -32 32 -32c21 9 25 10 32 12
c0 -58 -15 -70 -51 -70c-39 0 -64 38 -64 83c0 55 59 102 128 102c143 0 254 -143 254 -338zM419 773c0 -27 -22 -49 -50 -49s-50 22 -50 49s23 50 50 50s50 -23 50 -50zM261 773c0 -27 -22 -49 -50 -49s-50 22 -50 49s23 50 50 50s50 -23 50 -50z" />
    <glyph glyph-name="Udieresis" unicode="&#xdc;" horiz-adv-x="591" 
d="M578 48c-11 -34 -32 -51 -63 -51c-28 0 -35 8 -81 76c-111 -73 -126 -83 -189 -83c-135 0 -239 126 -239 290c0 95 32 166 117 265c35 39 56 66 63 81h-24c-26 0 -34 2 -104 26c-9 0 -20 -12 -20 -21c0 -6 3 -9 11 -9c5 0 13 1 22 4c3 -9 4 -17 4 -23
c0 -16 -11 -26 -26 -26c-20 0 -30 14 -30 43c0 38 39 70 84 70c67 -17 92 -23 96 -23c9 0 20 3 33 8c11 4 15 5 53 5c-3 -9 -23 -34 -61 -77c-105 -120 -147 -207 -147 -304c0 -140 91 -251 206 -251c37 0 154 60 154 96v347c0 135 -6 148 -38 190c19 3 64 4 135 4
c-28 -28 -32 -37 -32 -97v-425c0 -79 24 -115 76 -115zM465 773c0 -27 -22 -49 -50 -49s-50 22 -50 49s23 50 50 50s50 -23 50 -50zM307 773c0 -27 -22 -49 -50 -49s-50 22 -50 49s23 50 50 50s50 -23 50 -50z" />
    <glyph glyph-name="aacute" unicode="&#xe1;" 
d="M419 0h-71c-11 8 -11 9 -25 61c-31 -47 -78 -71 -141 -71c-107 0 -179 67 -179 166c0 86 96 166 211 166c19 0 44 -4 77 -12c-20 71 -101 141 -166 141c-41 0 -71 -24 -71 -58c0 -21 6 -31 18 -31c18 0 20 9 26 38h27c5 -7 7 -16 7 -29c0 -37 -16 -55 -47 -55
c-35 0 -70 36 -70 71c0 48 64 90 135 90c123 0 198 -87 239 -276c5 -25 15 -92 30 -201zM329 162c0 67 -53 116 -122 116c-107 0 -128 -70 -128 -116c0 -57 61 -114 122 -114c60 0 128 56 128 114zM309 635c-61 -33 -111 -64 -151 -94l-30 26c14 23 106 104 128 104
c11 0 29 -12 53 -36z" />
    <glyph glyph-name="agrave" unicode="&#xe0;" 
d="M419 0h-71c-11 8 -11 9 -25 61c-31 -47 -78 -71 -141 -71c-107 0 -179 67 -179 166c0 86 96 166 211 166c19 0 44 -4 77 -12c-20 71 -101 141 -166 141c-41 0 -71 -24 -71 -58c0 -21 6 -31 18 -31c18 0 20 9 26 38h27c5 -7 7 -16 7 -29c0 -37 -16 -55 -47 -55
c-35 0 -70 36 -70 71c0 48 64 90 135 90c123 0 198 -87 239 -276c5 -25 15 -92 30 -201zM329 162c0 67 -53 116 -122 116c-107 0 -128 -70 -128 -116c0 -57 61 -114 122 -114c60 0 128 56 128 114zM263 567l-30 -26c-40 30 -90 61 -151 94c24 24 42 36 53 36
c22 0 114 -81 128 -104z" />
    <glyph glyph-name="acircumflex" unicode="&#xe2;" 
d="M419 0h-71c-11 8 -11 9 -25 61c-31 -47 -78 -71 -141 -71c-107 0 -179 67 -179 166c0 86 96 166 211 166c19 0 44 -4 77 -12c-20 71 -101 141 -166 141c-41 0 -71 -24 -71 -58c0 -21 6 -31 18 -31c18 0 20 9 26 38h27c5 -7 7 -16 7 -29c0 -37 -16 -55 -47 -55
c-35 0 -70 36 -70 71c0 48 64 90 135 90c123 0 198 -87 239 -276c5 -25 15 -92 30 -201zM329 162c0 67 -53 116 -122 116c-107 0 -128 -70 -128 -116c0 -57 61 -114 122 -114c60 0 128 56 128 114zM349 576c-20 -22 -36 -33 -49 -33c-37 0 -74 17 -113 51
c-39 -34 -76 -51 -113 -51c-13 0 -29 11 -49 33c55 9 109 40 162 93c53 -53 107 -84 162 -93z" />
    <glyph glyph-name="adieresis" unicode="&#xe4;" 
d="M419 0h-71c-11 8 -11 9 -25 61c-31 -47 -78 -71 -141 -71c-107 0 -179 67 -179 166c0 86 96 166 211 166c19 0 44 -4 77 -12c-20 71 -101 141 -166 141c-41 0 -71 -24 -71 -58c0 -21 6 -31 18 -31c18 0 20 9 26 38h27c5 -7 7 -16 7 -29c0 -37 -16 -55 -47 -55
c-35 0 -70 36 -70 71c0 48 64 90 135 90c123 0 198 -87 239 -276c5 -25 15 -92 30 -201zM329 162c0 67 -53 116 -122 116c-107 0 -128 -70 -128 -116c0 -57 61 -114 122 -114c60 0 128 56 128 114zM349 591c0 -27 -22 -49 -50 -49s-50 22 -50 49s23 50 50 50s50 -23 50 -50z
M191 591c0 -27 -22 -49 -50 -49s-50 22 -50 49s23 50 50 50s50 -23 50 -50z" />
    <glyph glyph-name="atilde" unicode="&#xe3;" 
d="M419 0h-71c-11 8 -11 9 -25 61c-31 -47 -78 -71 -141 -71c-107 0 -179 67 -179 166c0 86 96 166 211 166c19 0 44 -4 77 -12c-20 71 -101 141 -166 141c-41 0 -71 -24 -71 -58c0 -21 6 -31 18 -31c18 0 20 9 26 38h27c5 -7 7 -16 7 -29c0 -37 -16 -55 -47 -55
c-35 0 -70 36 -70 71c0 48 64 90 135 90c123 0 198 -87 239 -276c5 -25 15 -92 30 -201zM329 162c0 67 -53 116 -122 116c-107 0 -128 -70 -128 -116c0 -57 61 -114 122 -114c60 0 128 56 128 114zM330 613c-19 -48 -47 -72 -86 -72c-18 0 -32 5 -116 35
c-15 0 -30 -11 -43 -34l-22 16c11 46 37 69 78 69c11 0 32 -6 64 -19c25 -10 44 -15 57 -15c19 0 35 11 46 34z" />
    <glyph glyph-name="aring" unicode="&#xe5;" 
d="M419 0h-71c-11 8 -11 9 -25 61c-31 -47 -78 -71 -141 -71c-107 0 -179 67 -179 166c0 86 96 166 211 166c19 0 44 -4 77 -12c-20 71 -101 141 -166 141c-41 0 -71 -24 -71 -58c0 -21 6 -31 18 -31c18 0 20 9 26 38h27c5 -7 7 -16 7 -29c0 -37 -16 -55 -47 -55
c-35 0 -70 36 -70 71c0 48 64 90 135 90c123 0 198 -87 239 -276c5 -25 15 -92 30 -201zM329 162c0 67 -53 116 -122 116c-107 0 -128 -70 -128 -116c0 -57 61 -114 122 -114c60 0 128 56 128 114zM277 611c0 -39 -31 -69 -72 -70c-39 0 -69 30 -70 71c0 31 23 70 71 71
c31 0 70 -23 71 -72zM206 654c-22 1 -40 -17 -40 -41s20 -40 42 -40c23 2 39 19 39 41c0 23 -18 40 -41 40z" />
    <glyph glyph-name="ccedilla" unicode="&#xe7;" 
d="M419 129c-36 -76 -113 -126 -195 -128l-8 -26c44 -5 66 -24 67 -57c0 -46 -45 -74 -121 -75c-15 0 -31 2 -48 5l4 45h37c42 0 63 10 63 29c0 17 -14 23 -62 26l18 61c-108 29 -166 109 -166 229c0 131 113 251 237 251c75 0 142 -54 142 -116c0 -59 -39 -96 -102 -96
c-49 0 -78 26 -78 70c0 33 1 34 38 52c9 -30 13 -46 13 -47c7 -11 20 -17 39 -17c21 0 45 21 45 51c0 41 -41 77 -90 77c-99 0 -192 -94 -192 -192c0 -111 90 -212 192 -212c28 0 58 10 91 30c39 24 65 37 76 40z" />
    <glyph glyph-name="eacute" unicode="&#xe9;" horiz-adv-x="455" 
d="M425 113c-19 -73 -100 -123 -199 -123c-42 0 -51 4 -116 32c-21 -18 -32 -35 -32 -51c0 -12 4 -20 13 -25s13 -11 13 -20v-26c-43 1 -64 18 -64 52c0 18 3 24 38 96c-58 81 -71 99 -71 180c0 134 99 238 226 238c44 0 93 -15 147 -45l-225 -335c26 -25 63 -38 110 -38
c57 0 76 10 160 65zM284 376c0 32 -40 58 -84 58c-69 0 -141 -86 -141 -174c0 -50 25 -107 61 -141c61 61 164 232 164 257zM329 635c-61 -33 -111 -64 -151 -94l-30 26c14 23 106 104 128 104c11 0 29 -12 53 -36z" />
    <glyph glyph-name="egrave" unicode="&#xe8;" horiz-adv-x="455" 
d="M425 113c-19 -73 -100 -123 -199 -123c-42 0 -51 4 -116 32c-21 -18 -32 -35 -32 -51c0 -12 4 -20 13 -25s13 -11 13 -20v-26c-43 1 -64 18 -64 52c0 18 3 24 38 96c-58 81 -71 99 -71 180c0 134 99 238 226 238c44 0 93 -15 147 -45l-225 -335c26 -25 63 -38 110 -38
c57 0 76 10 160 65zM284 376c0 32 -40 58 -84 58c-69 0 -141 -86 -141 -174c0 -50 25 -107 61 -141c61 61 164 232 164 257zM273 567l-30 -26c-40 30 -90 61 -151 94c24 24 42 36 53 36c22 0 114 -81 128 -104z" />
    <glyph glyph-name="ecircumflex" unicode="&#xea;" horiz-adv-x="455" 
d="M425 113c-19 -73 -100 -123 -199 -123c-42 0 -51 4 -116 32c-21 -18 -32 -35 -32 -51c0 -12 4 -20 13 -25s13 -11 13 -20v-26c-43 1 -64 18 -64 52c0 18 3 24 38 96c-58 81 -71 99 -71 180c0 134 99 238 226 238c44 0 93 -15 147 -45l-225 -335c26 -25 63 -38 110 -38
c57 0 76 10 160 65zM284 376c0 32 -40 58 -84 58c-69 0 -141 -86 -141 -174c0 -50 25 -107 61 -141c61 61 164 232 164 257zM389 576c-20 -22 -36 -33 -49 -33c-37 0 -74 17 -113 51c-39 -34 -76 -51 -113 -51c-13 0 -29 11 -49 33c55 9 109 40 162 93
c53 -53 107 -84 162 -93z" />
    <glyph glyph-name="edieresis" unicode="&#xeb;" horiz-adv-x="455" 
d="M425 113c-19 -73 -100 -123 -199 -123c-42 0 -51 4 -116 32c-21 -18 -32 -35 -32 -51c0 -12 4 -20 13 -25s13 -11 13 -20v-26c-43 1 -64 18 -64 52c0 18 3 24 38 96c-58 81 -71 99 -71 180c0 134 99 238 226 238c44 0 93 -15 147 -45l-225 -335c26 -25 63 -38 110 -38
c57 0 76 10 160 65zM284 376c0 32 -40 58 -84 58c-69 0 -141 -86 -141 -174c0 -50 25 -107 61 -141c61 61 164 232 164 257zM359 591c0 -27 -22 -49 -50 -49s-50 22 -50 49s23 50 50 50s50 -23 50 -50zM201 591c0 -27 -22 -49 -50 -49s-50 22 -50 49s23 50 50 50
s50 -23 50 -50z" />
    <glyph glyph-name="iacute" unicode="&#xed;" horiz-adv-x="159" 
d="M125 0h-110c19 52 20 55 20 57v219c0 59 -11 100 -33 122c25 26 55 45 90 58v-328c0 -49 11 -92 33 -128zM169 635c-61 -33 -111 -64 -151 -94l-30 26c14 23 106 104 128 104c11 0 29 -12 53 -36z" />
    <glyph glyph-name="igrave" unicode="&#xec;" horiz-adv-x="159" 
d="M125 0h-110c19 52 20 55 20 57v219c0 59 -11 100 -33 122c25 26 55 45 90 58v-328c0 -49 11 -92 33 -128zM113 567l-30 -26c-40 30 -90 61 -151 94c24 24 42 36 53 36c22 0 114 -81 128 -104z" />
    <glyph glyph-name="icircumflex" unicode="&#xee;" horiz-adv-x="159" 
d="M125 0h-110c19 52 20 55 20 57v219c0 59 -11 100 -33 122c25 26 55 45 90 58v-328c0 -49 11 -92 33 -128zM229 576c-20 -22 -36 -33 -49 -33c-37 0 -74 17 -113 51c-39 -34 -76 -51 -113 -51c-13 0 -29 11 -49 33c55 9 109 40 162 93c53 -53 107 -84 162 -93z" />
    <glyph glyph-name="idieresis" unicode="&#xef;" horiz-adv-x="159" 
d="M125 0h-110c19 52 20 55 20 57v219c0 59 -11 100 -33 122c25 26 55 45 90 58v-328c0 -49 11 -92 33 -128zM189 591c0 -27 -22 -49 -50 -49s-50 22 -50 49s23 50 50 50s50 -23 50 -50zM31 591c0 -27 -22 -49 -50 -49s-50 22 -50 49s23 50 50 50s50 -23 50 -50z" />
    <glyph glyph-name="ntilde" unicode="&#xf1;" horiz-adv-x="464" 
d="M431 269c0 -61 -14 -109 -48 -162c-11 -17 -17 -28 -17 -33c0 -17 2 -19 42 -45c-58 -25 -90 -38 -133 -42c89 162 98 181 98 256c0 98 -59 174 -136 174c-70 0 -122 -61 -122 -142v-207c0 -39 0 -43 38 -68h-142c28 34 38 52 38 74v220c0 85 -6 92 -38 130
c17 26 29 39 38 39c14 0 27 -12 72 -65c47 47 92 71 135 71c108 0 175 -78 175 -200zM380 613c-19 -48 -47 -72 -86 -72c-18 0 -32 5 -116 35c-15 0 -30 -11 -43 -34l-22 16c11 46 37 69 78 69c11 0 32 -6 64 -19c25 -10 44 -15 57 -15c19 0 35 11 46 34z" />
    <glyph glyph-name="oacute" unicode="&#xf3;" horiz-adv-x="509" 
d="M478 234c0 -133 -110 -244 -243 -244c-135 0 -231 109 -231 244c0 126 114 238 243 238c128 0 231 -106 231 -238zM427 195c0 89 -99 225 -218 225c-62 0 -148 -72 -148 -141c0 -111 109 -237 205 -237c80 0 161 79 161 153zM329 635c-61 -33 -111 -64 -151 -94l-30 26
c14 23 106 104 128 104c11 0 29 -12 53 -36z" />
    <glyph glyph-name="ograve" unicode="&#xf2;" horiz-adv-x="509" 
d="M478 234c0 -133 -110 -244 -243 -244c-135 0 -231 109 -231 244c0 126 114 238 243 238c128 0 231 -106 231 -238zM427 195c0 89 -99 225 -218 225c-62 0 -148 -72 -148 -141c0 -111 109 -237 205 -237c80 0 161 79 161 153zM323 567l-30 -26c-40 30 -90 61 -151 94
c24 24 42 36 53 36c22 0 114 -81 128 -104z" />
    <glyph glyph-name="ocircumflex" unicode="&#xf4;" horiz-adv-x="509" 
d="M478 234c0 -133 -110 -244 -243 -244c-135 0 -231 109 -231 244c0 126 114 238 243 238c128 0 231 -106 231 -238zM427 195c0 89 -99 225 -218 225c-62 0 -148 -72 -148 -141c0 -111 109 -237 205 -237c80 0 161 79 161 153zM409 576c-20 -22 -36 -33 -49 -33
c-37 0 -74 17 -113 51c-39 -34 -76 -51 -113 -51c-13 0 -29 11 -49 33c55 9 109 40 162 93c53 -53 107 -84 162 -93z" />
    <glyph glyph-name="odieresis" unicode="&#xf6;" horiz-adv-x="509" 
d="M478 234c0 -133 -110 -244 -243 -244c-135 0 -231 109 -231 244c0 126 114 238 243 238c128 0 231 -106 231 -238zM427 195c0 89 -99 225 -218 225c-62 0 -148 -72 -148 -141c0 -111 109 -237 205 -237c80 0 161 79 161 153zM369 591c0 -27 -22 -49 -50 -49
s-50 22 -50 49s23 50 50 50s50 -23 50 -50zM211 591c0 -27 -22 -49 -50 -49s-50 22 -50 49s23 50 50 50s50 -23 50 -50z" />
    <glyph glyph-name="otilde" unicode="&#xf5;" horiz-adv-x="509" 
d="M478 234c0 -133 -110 -244 -243 -244c-135 0 -231 109 -231 244c0 126 114 238 243 238c128 0 231 -106 231 -238zM427 195c0 89 -99 225 -218 225c-62 0 -148 -72 -148 -141c0 -111 109 -237 205 -237c80 0 161 79 161 153zM382 614c-19 -53 -49 -79 -92 -79
c-22 0 -29 2 -116 35c-14 0 -28 -12 -42 -36l-29 21c13 51 41 76 84 76c13 0 35 -6 66 -19c25 -10 43 -15 55 -15c19 0 33 12 44 37z" />
    <glyph glyph-name="uacute" unicode="&#xfa;" horiz-adv-x="450" 
d="M429 52c-15 -33 -30 -49 -44 -49c-11 0 -26 10 -45 29c-18 19 -29 29 -33 29c-5 0 -12 -6 -23 -18c-32 -38 -66 -53 -118 -53c-87 0 -166 89 -166 193c0 49 36 145 83 222c-15 4 -25 6 -31 6c-27 -4 -28 -4 -39 -4v55c13 -2 131 -6 134 -6c-76 -141 -90 -169 -90 -229
c0 -104 58 -179 141 -179c59 0 109 49 109 108v245c0 14 -1 16 -32 57h122c-29 -29 -29 -33 -32 -90v-224c0 -21 38 -79 64 -92zM329 635c-61 -33 -111 -64 -151 -94l-30 26c14 23 106 104 128 104c11 0 29 -12 53 -36z" />
    <glyph glyph-name="ugrave" unicode="&#xf9;" horiz-adv-x="450" 
d="M429 52c-15 -33 -30 -49 -44 -49c-11 0 -26 10 -45 29c-18 19 -29 29 -33 29c-5 0 -12 -6 -23 -18c-32 -38 -66 -53 -118 -53c-87 0 -166 89 -166 193c0 49 36 145 83 222c-15 4 -25 6 -31 6c-27 -4 -28 -4 -39 -4v55c13 -2 131 -6 134 -6c-76 -141 -90 -169 -90 -229
c0 -104 58 -179 141 -179c59 0 109 49 109 108v245c0 14 -1 16 -32 57h122c-29 -29 -29 -33 -32 -90v-224c0 -21 38 -79 64 -92zM293 567l-30 -26c-40 30 -90 61 -151 94c24 24 42 36 53 36c22 0 114 -81 128 -104z" />
    <glyph glyph-name="ucircumflex" unicode="&#xfb;" horiz-adv-x="450" 
d="M429 52c-15 -33 -30 -49 -44 -49c-11 0 -26 10 -45 29c-18 19 -29 29 -33 29c-5 0 -12 -6 -23 -18c-32 -38 -66 -53 -118 -53c-87 0 -166 89 -166 193c0 49 36 145 83 222c-15 4 -25 6 -31 6c-27 -4 -28 -4 -39 -4v55c13 -2 131 -6 134 -6c-76 -141 -90 -169 -90 -229
c0 -104 58 -179 141 -179c59 0 109 49 109 108v245c0 14 -1 16 -32 57h122c-29 -29 -29 -33 -32 -90v-224c0 -21 38 -79 64 -92zM369 576c-20 -22 -36 -33 -49 -33c-37 0 -74 17 -113 51c-39 -34 -76 -51 -113 -51c-13 0 -29 11 -49 33c55 9 109 40 162 93
c53 -53 107 -84 162 -93z" />
    <glyph glyph-name="udieresis" unicode="&#xfc;" horiz-adv-x="450" 
d="M429 52c-15 -33 -30 -49 -44 -49c-11 0 -26 10 -45 29c-18 19 -29 29 -33 29c-5 0 -12 -6 -23 -18c-32 -38 -66 -53 -118 -53c-87 0 -166 89 -166 193c0 49 36 145 83 222c-15 4 -25 6 -31 6c-27 -4 -28 -4 -39 -4v55c13 -2 131 -6 134 -6c-76 -141 -90 -169 -90 -229
c0 -104 58 -179 141 -179c59 0 109 49 109 108v245c0 14 -1 16 -32 57h122c-29 -29 -29 -33 -32 -90v-224c0 -21 38 -79 64 -92zM339 591c0 -27 -22 -49 -50 -49s-50 22 -50 49s23 50 50 50s50 -23 50 -50zM181 591c0 -27 -22 -49 -50 -49s-50 22 -50 49s23 50 50 50
s50 -23 50 -50z" />
    <glyph glyph-name="dagger" unicode="&#x2020;" horiz-adv-x="556" 
d="M504 441h-188v-590h-74v590h-189v56h189v211h74v-211h188v-56z" />
    <glyph glyph-name="degree" unicode="&#xb0;" horiz-adv-x="400" 
d="M336 557c0 -78 -58 -136 -136 -136s-136 58 -136 136s58 136 136 136s136 -58 136 -136zM308 557c0 59 -51 113 -108 113s-108 -53 -108 -113c0 -61 50 -113 108 -113c57 0 108 53 108 113z" />
    <glyph glyph-name="cent" unicode="&#xa2;" 
d="M419 117c-36 -77 -115 -128 -199 -128c-6 0 -21 3 -46 8l-39 -141h-45l43 155c-83 39 -125 110 -125 215c0 148 131 251 245 251l35 120h45l-37 -129c54 -18 91 -61 91 -107c0 -59 -39 -96 -102 -96c-49 0 -78 26 -78 70c0 33 1 34 38 52c9 -30 13 -46 13 -47
c7 -11 20 -17 39 -17c21 0 45 21 45 51c0 41 -41 77 -90 77c-99 0 -192 -94 -192 -192c0 -111 90 -212 192 -212c28 0 58 10 91 30c39 24 65 37 76 40z" />
    <glyph glyph-name="sterling" unicode="&#xa3;" horiz-adv-x="556" 
d="M539 32c-42 -32 -84 -48 -127 -48c-19 0 -52 7 -99 22s-84 23 -110 23c-35 0 -74 -13 -117 -40l-49 69c75 50 122 121 122 187c0 19 -6 43 -19 72h-107v63h69c-29 59 -43 103 -43 134c0 118 89 204 247 204c76 0 215 -30 215 -228h-88c0 95 -52 152 -137 152
c-82 0 -143 -53 -143 -123c0 -31 17 -77 51 -139h167v-63h-138c6 -23 9 -45 9 -66c0 -65 -45 -135 -121 -186l2 2v-2c43 25 87 37 131 37c23 0 53 -6 92 -18c39 -11 64 -17 76 -17c30 0 55 10 76 31z" />
    <glyph glyph-name="section" unicode="&#xa7;" horiz-adv-x="556" 
d="M512 244c0 -63 -34 -117 -103 -160c35 -37 52 -75 52 -114c0 -91 -79 -161 -181 -161c-120 0 -197 62 -197 188h88c0 -75 32 -112 97 -112c70 0 105 28 105 83c0 28 -18 54 -55 79l-210 140c-43 29 -65 69 -65 122c0 72 28 116 100 158c-31 34 -47 67 -47 100
c0 90 62 170 180 170c117 0 184 -66 184 -183h-85c-5 71 -38 107 -99 107c-55 0 -92 -32 -92 -81c0 -31 24 -61 73 -90l146 -86c73 -43 109 -96 109 -160zM429 225c0 39 -21 71 -62 96l-174 107c-45 -23 -67 -55 -67 -97c0 -37 15 -66 45 -85l189 -122c46 30 69 64 69 101z
" />
    <glyph glyph-name="bullet" unicode="&#x2022;" horiz-adv-x="350" 
d="M323 359c0 -82 -66 -147 -148 -147s-147 65 -147 147s65 148 147 148c81 0 148 -67 148 -148z" />
    <glyph glyph-name="paragraph" unicode="&#xb6;" horiz-adv-x="526" 
d="M473 -172h-127v858h-95v-858h-133v22c39 5 68 41 68 84v381c-93 0 -141 69 -141 203c0 140 53 189 189 189h239v-21c-46 -4 -63 -26 -63 -81v-671c0 -51 21 -79 63 -84v-22z" />
    <glyph glyph-name="germandbls" unicode="&#xdf;" horiz-adv-x="611" 
d="M570 153c0 -91 -71 -156 -169 -156c-72 0 -127 34 -164 103l58 28c30 -52 65 -78 105 -78c55 0 100 43 100 95c0 37 -1 46 -75 98c-96 67 -116 92 -116 138c0 10 2 20 6 30c65 116 73 142 73 169c0 52 -42 86 -107 86c-90 0 -128 -53 -128 -182v-474h-68v478
c0 153 66 230 198 230c99 0 169 -57 169 -138c0 -35 -4 -43 -65 -161c-5 -11 -7 -21 -7 -30c0 -28 17 -49 74 -86c93 -62 115 -89 116 -150z" />
    <glyph glyph-name="registered" unicode="&#xae;" horiz-adv-x="737" 
d="M742 360c0 -208 -163 -369 -372 -369c-210 0 -374 159 -374 369c0 209 164 367 374 367c209 0 372 -161 372 -367zM686 360c0 184 -136 324 -316 324c-182 0 -318 -138 -318 -324c0 -188 136 -326 318 -326c175 0 316 135 316 326zM537 151h-50l-115 189h-92v-189h-46
v416h156c96 0 144 -38 144 -114c0 -65 -40 -102 -119 -111zM485 457c0 49 -35 74 -105 74h-100v-155h89c85 0 116 22 116 81z" />
    <glyph glyph-name="copyright" unicode="&#xa9;" horiz-adv-x="737" 
d="M742 360c0 -208 -163 -369 -372 -369c-210 0 -374 159 -374 369c0 209 164 367 374 367c209 0 372 -161 372 -367zM686 360c0 184 -136 324 -316 324c-182 0 -318 -138 -318 -324c0 -188 136 -326 318 -326c175 0 316 135 316 326zM556 279c-21 -86 -88 -141 -173 -141
c-125 0 -213 92 -213 223c0 134 83 221 209 221c93 0 161 -53 177 -137h-47c-16 55 -66 91 -129 91c-95 0 -154 -67 -154 -174c0 -102 63 -178 157 -178c63 0 113 37 126 95h47z" />
    <glyph glyph-name="trademark" unicode="&#x2122;" horiz-adv-x="1000" 
d="M903 306h-73v335h-2l-129 -335h-50l-129 335h-2v-335h-73v412h112l118 -303l116 303h112v-412zM373 658h-127v-352h-73v352h-127v60h327v-60z" />
    <glyph glyph-name="acute" unicode="&#xb4;" horiz-adv-x="333" 
d="M279 581c-61 -33 -111 -64 -151 -94l-30 26c14 23 106 104 128 104c11 0 29 -12 53 -36z" />
    <glyph glyph-name="dieresis" unicode="&#xa8;" horiz-adv-x="423" 
d="M339 811c0 -27 -22 -49 -50 -49s-50 22 -50 49s23 50 50 50s50 -23 50 -50zM181 811c0 -27 -22 -49 -50 -49s-50 22 -50 49s23 50 50 50s50 -23 50 -50z" />
    <glyph glyph-name="AE" unicode="&#xc6;" horiz-adv-x="1062" 
d="M1045 562c0 -86 -67 -131 -253 -169c-91 -19 -151 -34 -178 -45v-243c52 -45 103 -68 152 -68c36 0 115 22 139 39c25 19 40 52 44 101c29 -17 30 -20 32 -51c0 -69 -106 -136 -218 -136c-46 0 -85 3 -118 10h-130c28 62 30 67 30 89c0 126 -122 284 -262 342
c-51 -80 -77 -182 -77 -307c0 -92 19 -121 92 -216c-29 -18 -64 -39 -105 -62c0 71 -5 130 -14 175s-13 86 -13 122c0 97 22 196 66 297c-21 3 -39 5 -52 5c-77 0 -125 -25 -125 -65c0 -9 19 -27 26 -27c6 5 14 13 25 26c8 -11 12 -22 12 -33c0 -29 -28 -52 -63 -52
c-28 0 -59 35 -59 67c0 76 72 124 182 124c34 0 63 -4 77 -7c94 133 222 197 384 197c56 11 95 16 117 16c92 0 155 -38 155 -96c0 -39 -14 -52 -58 -52h-32c13 31 19 48 19 52c0 31 -54 57 -109 57c-42 0 -81 -12 -116 -36v-219c43 27 110 47 200 62c128 9 192 37 192 84
c0 13 -5 22 -16 29s-16 12 -16 16c0 17 11 26 32 26c20 0 38 -24 38 -52zM541 283v326c-5 9 -14 13 -26 13c-64 0 -153 -66 -217 -154c81 -25 112 -52 243 -185z" />
    <glyph glyph-name="Oslash" unicode="&#xd8;" horiz-adv-x="591" 
d="M556 352c0 -200 -119 -350 -280 -350c-19 0 -38 2 -56 7c-1 -5 -4 -16 -9 -33h-71l17 60c-95 56 -149 163 -149 297c0 130 69 273 149 293c-57 -71 -85 -151 -85 -242c0 -100 41 -201 108 -265l146 518c-15 5 -29 8 -43 8c-39 0 -58 -17 -58 -50c0 -12 20 -32 32 -32
c21 9 25 10 32 12c0 -58 -15 -70 -51 -70c-39 0 -64 38 -64 83c0 55 59 102 128 102c11 0 23 -2 37 -5l9 31h70l-16 -55c103 -54 154 -157 154 -309zM499 307c0 109 -47 229 -114 292l-146 -522c24 -12 49 -18 76 -18c106 0 184 102 184 248z" />
    <glyph glyph-name="plusminus" unicode="&#xb1;" horiz-adv-x="584" 
d="M535 282h-216v-161h-53v161h-217v53h217v161h53v-161h216v-53zM535 10h-486v53h486v-53z" />
    <glyph glyph-name="yen" unicode="&#xa5;" horiz-adv-x="556" 
d="M553 688l-193 -304h155v-57h-193v-85h193v-57h-193v-185h-88v185h-192v57h192v85h-192v57h154l-193 304h100l175 -295l175 295h100z" />
    <glyph glyph-name="ordfeminine" unicode="&#xaa;" horiz-adv-x="243" 
d="M232 458l-42 -1c-3 2 -7 12 -13 31c-17 -25 -42 -38 -77 -38c-53 0 -100 33 -100 95c0 50 54 93 118 93c13 0 26 -2 39 -5c-13 33 -48 71 -88 71c-24 0 -36 -9 -36 -28c0 -11 3 -16 8 -16c7 1 11 7 12 20l17 1c3 -4 5 -10 5 -18c0 -22 -9 -33 -28 -33
c-20 0 -40 21 -40 42c0 28 35 52 76 52c54 0 93 -32 117 -97c10 -28 21 -84 32 -169zM179 548c0 36 -28 61 -65 61c-45 0 -67 -20 -67 -61c0 -30 32 -60 64 -60s68 30 68 60z" />
    <glyph glyph-name="ordmasculine" unicode="&#xba;" horiz-adv-x="281" 
d="M266 594c0 -74 -63 -137 -136 -137s-130 60 -130 137c0 74 65 133 136 133s130 -60 130 -133zM233 573c0 49 -55 120 -117 120c-33 0 -79 -38 -79 -73c0 -60 58 -129 109 -129c45 0 87 41 87 82z" />
    <glyph glyph-name="ae" unicode="&#xe6;" horiz-adv-x="774" 
d="M755 113c-19 -73 -100 -123 -199 -123c-42 0 -51 4 -116 32c-21 -18 -32 -35 -32 -51c0 -12 4 -20 13 -25s13 -11 13 -20v-26c-43 1 -64 18 -64 52c0 11 5 27 14 48h-36c-11 8 -11 9 -25 61c-31 -47 -78 -71 -141 -71c-107 0 -179 67 -179 166c0 86 96 166 211 166
c19 0 44 -4 77 -12c-20 71 -101 141 -166 141c-41 0 -71 -24 -71 -58c0 -21 6 -31 18 -31c18 0 20 9 26 38h27c5 -7 7 -16 7 -29c0 -37 -16 -55 -47 -55c-35 0 -70 36 -70 71c0 48 64 90 135 90c93 0 161 -53 204 -159c37 95 112 148 209 148c44 0 93 -15 147 -45l-225 -335
c26 -25 63 -38 110 -38c57 0 76 10 160 65zM614 376c0 32 -40 58 -84 58c-69 0 -141 -86 -141 -174c0 -50 25 -107 61 -141c61 61 164 232 164 257zM329 162c0 67 -53 116 -122 116c-107 0 -128 -70 -128 -116c0 -57 61 -114 122 -114c60 0 128 56 128 114z" />
    <glyph glyph-name="oslash" unicode="&#xf8;" horiz-adv-x="509" 
d="M478 245c0 -133 -110 -244 -243 -244c-15 0 -30 2 -47 5l-15 -56h-57l20 73c-82 39 -132 123 -132 222c0 131 108 237 261 237l17 60h56l-20 -71c95 -31 160 -122 160 -226zM427 206c0 60 -58 159 -127 200l-94 -337c21 -11 41 -16 60 -16c80 0 161 79 161 153zM249 426
c-13 3 -27 5 -40 5c-62 0 -148 -72 -148 -141c0 -66 37 -136 97 -189z" />
    <glyph glyph-name="questiondown" unicode="&#xbf;" horiz-adv-x="455" 
d="M320 724c0 -34 -29 -64 -64 -64c-31 0 -63 32 -63 64s32 64 63 64c35 0 64 -27 64 -64zM442 125c0 -88 -97 -153 -230 -153c-112 0 -178 55 -178 147c0 58 19 107 58 147c154 122 164 130 164 178c0 20 -8 45 -25 76c24 17 43 26 57 26c19 0 32 -47 32 -89
c0 -41 -20 -80 -59 -119c-36 -32 -74 -63 -111 -94c-39 -39 -59 -81 -59 -125c0 -74 65 -128 153 -128c91 0 172 80 172 134c0 24 -34 54 -64 54c-23 0 -35 -11 -35 -34c0 -12 3 -25 8 -40h-20c-33 0 -49 15 -49 45c0 37 42 64 96 64c44 0 90 -45 90 -89z" />
    <glyph glyph-name="exclamdown" unicode="&#xa1;" horiz-adv-x="205" 
d="M170 734c0 -35 -29 -64 -64 -64c-31 0 -63 30 -63 64c0 38 21 57 63 57c37 0 64 -28 64 -57zM170 505c-21 -12 -40 -31 -57 -58v-452h-102c36 30 38 32 39 71v439h120z" />
    <glyph glyph-name="logicalnot" unicode="&#xac;" horiz-adv-x="584" 
d="M535 118h-53v209h-433v53h486v-262z" />
    <glyph glyph-name="florin" unicode="&#x192;" horiz-adv-x="289" 
d="M254 562c-16 0 -36 16 -36 32c0 10 10 26 19 26c14 -7 20 -9 24 -9c3 0 7 1 10 2c3 9 5 16 5 21c0 12 -10 18 -29 18c-45 0 -60 -45 -79 -189c0 -19 3 -22 33 -22c31 0 46 -14 47 -41c-19 3 -37 4 -52 4c-40 0 -40 0 -49 -42l-76 -359c-25 -121 -104 -212 -188 -219
l12 58c78 47 96 62 111 128l92 430h-44c-27 0 -42 14 -44 41c19 -2 34 -3 47 -3c41 0 42 1 60 78c26 110 67 155 147 155c30 0 53 -21 53 -47c0 -35 -43 -62 -63 -62z" />
    <glyph glyph-name="guillemotleft" unicode="&#xab;" horiz-adv-x="556" 
d="M454 118l-147 115v88l147 115v-76l-108 -83l108 -83v-76zM249 118l-147 115v88l147 115v-76l-108 -83l108 -83v-76z" />
    <glyph glyph-name="guillemotright" unicode="&#xbb;" horiz-adv-x="556" 
d="M454 233l-147 -115v76l109 84l-109 82v76l147 -115v-88zM249 233l-147 -115v76l109 84l-109 82v76l147 -115v-88z" />
    <glyph glyph-name="ellipsis" unicode="&#x2026;" horiz-adv-x="594" 
d="M570 65c0 -35 -30 -65 -65 -65s-64 29 -64 65s28 64 64 64c43 0 65 -21 65 -64zM360 65c0 -35 -30 -65 -65 -65s-64 29 -64 65s28 64 64 64c43 0 65 -21 65 -64zM160 65c0 -35 -30 -65 -65 -65s-64 29 -64 65s28 64 64 64c43 0 65 -21 65 -64z" />
    <glyph glyph-name="nonbreakingspace" unicode="&#xa0;" horiz-adv-x="500" 
 />
    <glyph glyph-name="Agrave" unicode="&#xc0;" horiz-adv-x="677" 
d="M645 0h-130c28 62 30 67 30 89c0 126 -122 284 -262 342c-51 -80 -77 -182 -77 -307c0 -92 19 -121 92 -216c-29 -18 -64 -39 -105 -62c0 71 -5 130 -14 175s-13 86 -13 122c0 97 22 196 66 297c-21 3 -39 5 -52 5c-77 0 -125 -25 -125 -65c0 -9 19 -27 26 -27
c6 5 14 13 25 26c8 -11 12 -22 12 -33c0 -29 -28 -52 -63 -52c-28 0 -59 35 -59 67c0 76 72 124 182 124c34 0 63 -4 77 -7c94 133 222 197 384 197c-17 -28 -25 -54 -25 -79v-524c0 -16 2 -20 31 -72zM541 283v326c-5 9 -14 13 -26 13c-64 0 -153 -66 -217 -154
c81 -25 112 -52 243 -185zM497 749l-30 -26c-40 30 -90 61 -151 94c24 24 42 36 53 36c22 0 114 -81 128 -104z" />
    <glyph glyph-name="Atilde" unicode="&#xc3;" horiz-adv-x="677" 
d="M645 0h-130c28 62 30 67 30 89c0 126 -122 284 -262 342c-51 -80 -77 -182 -77 -307c0 -92 19 -121 92 -216c-29 -18 -64 -39 -105 -62c0 71 -5 130 -14 175s-13 86 -13 122c0 97 22 196 66 297c-21 3 -39 5 -52 5c-77 0 -125 -25 -125 -65c0 -9 19 -27 26 -27
c6 5 14 13 25 26c8 -11 12 -22 12 -33c0 -29 -28 -52 -63 -52c-28 0 -59 35 -59 67c0 76 72 124 182 124c34 0 63 -4 77 -7c94 133 222 197 384 197c-17 -28 -25 -54 -25 -79v-524c0 -16 2 -20 31 -72zM541 283v326c-5 9 -14 13 -26 13c-64 0 -153 -66 -217 -154
c81 -25 112 -52 243 -185zM576 795c-19 -48 -47 -72 -86 -72c-18 0 -32 5 -116 35c-15 0 -30 -11 -43 -34l-22 16c11 46 37 69 78 69c11 0 32 -6 64 -19c25 -10 44 -15 57 -15c19 0 35 11 46 34z" />
    <glyph glyph-name="Otilde" unicode="&#xd5;" horiz-adv-x="591" 
d="M556 340c0 -200 -119 -350 -280 -350c-149 0 -268 137 -268 331c0 130 69 273 149 293c-57 -71 -85 -151 -85 -242c0 -172 114 -325 243 -325c106 0 184 102 184 248c0 175 -105 338 -216 338c-39 0 -58 -17 -58 -50c0 -12 20 -32 32 -32c21 9 25 10 32 12
c0 -58 -15 -70 -51 -70c-39 0 -64 38 -64 83c0 55 59 102 128 102c143 0 254 -143 254 -338zM426 795c-19 -48 -47 -72 -86 -72c-18 0 -32 5 -116 35c-15 0 -30 -11 -43 -34l-22 16c11 46 37 69 78 69c11 0 32 -6 64 -19c25 -10 44 -15 57 -15c19 0 35 11 46 34z" />
    <glyph glyph-name="OE" unicode="&#x152;" horiz-adv-x="1032" 
d="M1012 562c0 -90 -65 -131 -275 -176c-90 -19 -150 -36 -181 -51c-1 -58 -13 -113 -34 -164c55 -79 143 -134 212 -134c34 0 113 21 137 39c26 19 41 53 45 101c29 -17 30 -20 32 -51c0 -69 -106 -136 -218 -136c-103 0 -185 38 -244 115c-53 -77 -123 -115 -210 -115
c-149 0 -268 137 -268 331c0 130 69 273 149 293c-57 -71 -85 -151 -85 -242c0 -172 114 -325 243 -325c106 0 184 102 184 248c0 175 -105 338 -216 338c-39 0 -58 -17 -58 -50c0 -12 20 -32 32 -32c21 9 25 10 32 12c0 -58 -15 -70 -51 -70c-39 0 -64 38 -64 83
c0 55 59 102 128 102c58 0 138 -40 186 -103c62 77 140 116 235 116c92 0 155 -38 155 -96c0 -39 -14 -52 -58 -52h-32c13 31 19 48 19 52c0 31 -54 57 -109 57c-78 0 -140 -37 -187 -112c25 -44 39 -98 44 -162c50 37 126 64 227 81c128 9 192 37 192 84c0 13 -5 22 -16 29
s-16 12 -16 16c0 17 11 26 32 26c20 0 38 -24 38 -52z" />
    <glyph glyph-name="oe" unicode="&#x153;" horiz-adv-x="808" 
d="M785 122c-19 -73 -100 -123 -199 -123c-42 0 -51 4 -116 32c-21 -17 -32 -34 -32 -51c0 -12 4 -20 13 -25s13 -11 13 -20v-26c-43 1 -64 18 -64 52c0 18 3 24 38 96c0 3 -7 12 -21 28c-49 -56 -110 -84 -182 -84c-135 0 -231 109 -231 244c0 126 114 238 243 238
c72 0 131 -29 178 -86c43 52 99 78 168 78c44 0 93 -15 147 -45l-225 -335c26 -25 63 -38 110 -38c57 0 76 10 160 65zM644 385c0 32 -40 58 -84 58c-69 0 -141 -86 -141 -174c0 -50 25 -107 61 -141c61 61 164 232 164 257zM393 120c-17 32 -26 71 -26 117c0 29 5 58 16 86
c-46 72 -104 108 -174 108c-62 0 -148 -72 -148 -141c0 -111 109 -237 205 -237c49 0 92 22 127 67z" />
    <glyph glyph-name="endash" unicode="&#x2013;" horiz-adv-x="556" 
d="M546 250h-536v53h536v-53z" />
    <glyph glyph-name="emdash" unicode="&#x2014;" horiz-adv-x="1000" 
d="M990 250h-980v53h980v-53z" />
    <glyph glyph-name="quotedblleft" unicode="&#x201c;" horiz-adv-x="339" 
d="M325 555c0 -39 -29 -71 -64 -71c-47 0 -70 30 -70 90c0 40 19 74 57 103h45c-34 -27 -34 -28 -35 -51c45 -16 67 -40 67 -71zM145 555c0 -39 -29 -71 -64 -71c-47 0 -70 30 -70 90c0 40 19 74 57 103h45c-34 -27 -34 -28 -35 -51c45 -16 67 -40 67 -71z" />
    <glyph glyph-name="quotedblright" unicode="&#x201d;" horiz-adv-x="339" 
d="M325 584c0 -40 -19 -74 -57 -103h-45c32 25 34 26 35 51c-45 16 -67 40 -67 71c0 38 30 71 64 71c47 0 70 -30 70 -90zM145 584c0 -40 -19 -74 -57 -103h-45c32 25 34 26 35 51c-45 16 -67 40 -67 71c0 38 30 71 64 71c47 0 70 -30 70 -90z" />
    <glyph glyph-name="quoteleft" unicode="&#x2018;" horiz-adv-x="186" 
d="M165 555c0 -39 -29 -71 -64 -71c-47 0 -70 30 -70 90c0 40 19 74 57 103h45c-34 -27 -34 -28 -35 -51c45 -16 67 -40 67 -71z" />
    <glyph glyph-name="quoteright" unicode="&#x2019;" horiz-adv-x="186" 
d="M163 588c0 -40 -19 -74 -57 -103h-45c32 25 34 26 35 51c-45 16 -67 40 -67 71c0 38 30 71 64 71c47 0 70 -30 70 -90z" />
    <glyph glyph-name="divide" unicode="&#xf7;" horiz-adv-x="584" 
d="M350 456c0 -31 -27 -58 -58 -58c-32 0 -58 26 -58 58s26 58 58 58c33 0 58 -25 58 -58zM535 226h-486v53h486v-53zM350 49c0 -31 -27 -58 -58 -58c-32 0 -58 26 -58 58s26 58 58 58c33 0 58 -25 58 -58z" />
    <glyph glyph-name="ydieresis" unicode="&#xff;" 
d="M412 463c-25 -33 -37 -51 -37 -54c4 -29 4 -29 5 -172c0 -237 -8 -301 -59 -363c-33 -41 -84 -61 -153 -61c-41 0 -71 22 -71 51c0 15 20 28 61 38c7 -57 8 -57 48 -57c49 0 71 19 109 95v115l-6 13c-80 -59 -85 -63 -141 -63c-97 0 -160 79 -160 198c0 52 5 67 57 192
c-5 2 -21 11 -48 26c34 16 72 29 113 38c-1 -16 -13 -47 -34 -92s-31 -93 -31 -145c0 -95 58 -167 135 -167c63 0 115 55 115 122v231c0 13 -2 18 -31 55c42 4 64 7 69 8c15 0 34 -3 59 -8zM339 591c0 -27 -22 -49 -50 -49s-50 22 -50 49s23 50 50 50s50 -23 50 -50z
M181 591c0 -27 -22 -49 -50 -49s-50 22 -50 49s23 50 50 50s50 -23 50 -50z" />
    <glyph glyph-name="Ydieresis" unicode="&#x178;" horiz-adv-x="541" 
d="M509 682c0 -198 -28 -430 -71 -595c-38 -144 -114 -238 -193 -238c-42 0 -77 34 -77 77c0 11 3 16 8 16c50 -26 54 -28 63 -28c37 0 75 28 112 83c37 54 52 99 52 148c-93 -53 -103 -58 -151 -58c-105 0 -180 109 -180 245c0 77 12 106 77 260c-23 3 -36 5 -53 5
c-15 -1 -29 -2 -31 -2c-13 12 -16 14 -17 14c-6 0 -11 -11 -15 -34c12 -5 23 -11 32 -19c-13 -13 -23 -19 -32 -19c-10 0 -26 24 -26 38c0 70 74 71 199 71c-55 -117 -70 -168 -70 -257c0 -144 60 -231 160 -231c99 0 168 124 168 302c0 58 -12 92 -55 199
c33 9 66 17 100 23z" />
    <glyph glyph-name="currency" unicode="&#xa4;" horiz-adv-x="556" 
d="M528 555l-55 -54c33 -38 50 -88 50 -150c0 -59 -17 -110 -50 -151l54 -56l-45 -45l-55 58c-39 -37 -89 -55 -149 -55s-110 18 -149 55l-55 -58l-45 45l54 56c-33 41 -50 92 -50 151c0 62 17 112 50 150l-55 54l48 48l57 -56c39 34 88 51 145 51s106 -17 145 -51l57 56z
M450 351c0 97 -78 177 -172 177c-95 0 -172 -80 -172 -177c0 -99 77 -179 172 -179c94 0 172 81 172 179z" />
    <glyph glyph-name="guilsinglleft" unicode="&#x2039;" horiz-adv-x="333" 
d="M240 118l-147 115v88l147 115v-76l-108 -83l108 -83v-76z" />
    <glyph glyph-name="guilsinglright" unicode="&#x203a;" horiz-adv-x="333" 
d="M240 233l-147 -115v76l109 84l-109 82v76l147 -115v-88z" />
    <glyph glyph-name="daggerdbl" unicode="&#x2021;" horiz-adv-x="556" 
d="M504 53h-188v-202h-74v202h-189v56h189v340h-189v56h189v203h74v-203h188v-56h-188v-340h188v-56z" />
    <glyph glyph-name="periodcentered" unicode="&#xb7;" horiz-adv-x="173" 
d="M150 385c0 -35 -30 -65 -65 -65s-64 29 -64 65s28 64 64 64c43 0 65 -21 65 -64z" />
    <glyph glyph-name="quotesinglbase" unicode="&#x201a;" horiz-adv-x="186" 
d="M145 42c0 -40 -19 -74 -57 -103h-45c32 25 34 26 35 51c-45 16 -67 40 -67 71c0 38 30 71 64 71c47 0 70 -30 70 -90z" />
    <glyph glyph-name="quotedblbase" unicode="&#x201e;" horiz-adv-x="339" 
d="M325 42c0 -40 -19 -74 -57 -103h-45c32 25 34 26 35 51c-45 16 -67 40 -67 71c0 38 30 71 64 71c47 0 70 -30 70 -90zM145 42c0 -40 -19 -74 -57 -103h-45c32 25 34 26 35 51c-45 16 -67 40 -67 71c0 38 30 71 64 71c47 0 70 -30 70 -90z" />
    <glyph glyph-name="perthousand" unicode="&#x2030;" horiz-adv-x="750" 
d="M727 112c0 -65 -47 -112 -112 -112c-76 0 -112 64 -112 112c0 66 50 112 112 112c65 0 112 -47 112 -112zM256 512c0 -65 -47 -112 -112 -112c-66 0 -112 50 -112 112c0 66 50 112 112 112c65 0 112 -47 112 -112zM467 624l-361 -624h-74l361 624h74zM467 112
c0 -65 -47 -112 -112 -112c-76 0 -112 64 -112 112c0 66 50 112 112 112c65 0 112 -47 112 -112zM663 112c0 27 -21 48 -48 48s-48 -21 -48 -48c0 -28 20 -48 48 -48c29 0 48 20 48 48zM192 512c0 27 -21 48 -48 48s-48 -21 -48 -48c0 -28 20 -48 48 -48c29 0 48 20 48 48z
M403 112c0 27 -21 48 -48 48s-48 -21 -48 -48c0 -28 20 -48 48 -48c29 0 48 20 48 48z" />
    <glyph glyph-name="Acircumflex" unicode="&#xc2;" horiz-adv-x="677" 
d="M645 0h-130c28 62 30 67 30 89c0 126 -122 284 -262 342c-51 -80 -77 -182 -77 -307c0 -92 19 -121 92 -216c-29 -18 -64 -39 -105 -62c0 71 -5 130 -14 175s-13 86 -13 122c0 97 22 196 66 297c-21 3 -39 5 -52 5c-77 0 -125 -25 -125 -65c0 -9 19 -27 26 -27
c6 5 14 13 25 26c8 -11 12 -22 12 -33c0 -29 -28 -52 -63 -52c-28 0 -59 35 -59 67c0 76 72 124 182 124c34 0 63 -4 77 -7c94 133 222 197 384 197c-17 -28 -25 -54 -25 -79v-524c0 -16 2 -20 31 -72zM541 283v326c-5 9 -14 13 -26 13c-64 0 -153 -66 -217 -154
c81 -25 112 -52 243 -185zM619 756c-20 -22 -36 -33 -49 -33c-37 0 -74 17 -113 51c-39 -34 -76 -51 -113 -51c-13 0 -29 11 -49 33c55 9 109 40 162 93c53 -53 107 -84 162 -93z" />
    <glyph glyph-name="Ecircumflex" unicode="&#xca;" horiz-adv-x="632" 
d="M615 562c0 -63 -45 -110 -135 -140c-83 -20 -167 -40 -250 -61c-90 -25 -135 -63 -135 -114c0 -86 142 -210 242 -210c32 0 112 21 138 39c25 19 40 52 44 101c29 -17 30 -20 32 -51c0 -69 -106 -136 -218 -136c-190 0 -321 143 -321 347c0 201 136 354 314 354
c92 0 155 -38 155 -96c0 -39 -14 -52 -58 -52h-32c13 31 19 48 19 52c0 31 -54 57 -109 57c-126 0 -216 -100 -230 -262c0 -20 2 -45 6 -72c36 26 72 52 109 79c43 26 109 47 199 62c128 9 192 37 192 84c0 13 -5 22 -16 29s-16 12 -16 16c0 17 11 26 32 26
c20 0 38 -24 38 -52zM459 756c-20 -22 -36 -33 -49 -33c-37 0 -74 17 -113 51c-39 -34 -76 -51 -113 -51c-13 0 -29 11 -49 33c55 9 109 40 162 93c53 -53 107 -84 162 -93z" />
    <glyph glyph-name="Aacute" unicode="&#xc1;" horiz-adv-x="677" 
d="M645 0h-130c28 62 30 67 30 89c0 126 -122 284 -262 342c-51 -80 -77 -182 -77 -307c0 -92 19 -121 92 -216c-29 -18 -64 -39 -105 -62c0 71 -5 130 -14 175s-13 86 -13 122c0 97 22 196 66 297c-21 3 -39 5 -52 5c-77 0 -125 -25 -125 -65c0 -9 19 -27 26 -27
c6 5 14 13 25 26c8 -11 12 -22 12 -33c0 -29 -28 -52 -63 -52c-28 0 -59 35 -59 67c0 76 72 124 182 124c34 0 63 -4 77 -7c94 133 222 197 384 197c-17 -28 -25 -54 -25 -79v-524c0 -16 2 -20 31 -72zM541 283v326c-5 9 -14 13 -26 13c-64 0 -153 -66 -217 -154
c81 -25 112 -52 243 -185zM609 815c-61 -33 -111 -64 -151 -94l-30 26c14 23 106 104 128 104c11 0 29 -12 53 -36z" />
    <glyph glyph-name="Edieresis" unicode="&#xcb;" horiz-adv-x="632" 
d="M615 562c0 -63 -45 -110 -135 -140c-83 -20 -167 -40 -250 -61c-90 -25 -135 -63 -135 -114c0 -86 142 -210 242 -210c32 0 112 21 138 39c25 19 40 52 44 101c29 -17 30 -20 32 -51c0 -69 -106 -136 -218 -136c-190 0 -321 143 -321 347c0 201 136 354 314 354
c92 0 155 -38 155 -96c0 -39 -14 -52 -58 -52h-32c13 31 19 48 19 52c0 31 -54 57 -109 57c-126 0 -216 -100 -230 -262c0 -20 2 -45 6 -72c36 26 72 52 109 79c43 26 109 47 199 62c128 9 192 37 192 84c0 13 -5 22 -16 29s-16 12 -16 16c0 17 11 26 32 26
c20 0 38 -24 38 -52zM453 773c0 -27 -22 -49 -50 -49s-50 22 -50 49s23 50 50 50s50 -23 50 -50zM295 773c0 -27 -22 -49 -50 -49s-50 22 -50 49s23 50 50 50s50 -23 50 -50z" />
    <glyph glyph-name="Egrave" unicode="&#xc8;" horiz-adv-x="632" 
d="M615 562c0 -63 -45 -110 -135 -140c-83 -20 -167 -40 -250 -61c-90 -25 -135 -63 -135 -114c0 -86 142 -210 242 -210c32 0 112 21 138 39c25 19 40 52 44 101c29 -17 30 -20 32 -51c0 -69 -106 -136 -218 -136c-190 0 -321 143 -321 347c0 201 136 354 314 354
c92 0 155 -38 155 -96c0 -39 -14 -52 -58 -52h-32c13 31 19 48 19 52c0 31 -54 57 -109 57c-126 0 -216 -100 -230 -262c0 -20 2 -45 6 -72c36 26 72 52 109 79c43 26 109 47 199 62c128 9 192 37 192 84c0 13 -5 22 -16 29s-16 12 -16 16c0 17 11 26 32 26
c20 0 38 -24 38 -52zM357 749l-30 -26c-40 30 -90 61 -151 94c24 24 42 36 53 36c22 0 114 -81 128 -104z" />
    <glyph glyph-name="Iacute" unicode="&#xcd;" horiz-adv-x="195" 
d="M152 0h-141c34 53 34 54 34 58v559c0 3 -11 21 -34 55h128c-31 -43 -32 -46 -32 -59v-546c4 -5 19 -27 45 -67zM169 815c-61 -33 -111 -64 -151 -94l-30 26c14 23 106 104 128 104c11 0 29 -12 53 -36z" />
    <glyph glyph-name="Icircumflex" unicode="&#xce;" horiz-adv-x="195" 
d="M152 0h-141c34 53 34 54 34 58v559c0 3 -11 21 -34 55h128c-31 -43 -32 -46 -32 -59v-546c4 -5 19 -27 45 -67zM246 756c-20 -22 -36 -33 -49 -33c-37 0 -74 17 -113 51c-39 -34 -76 -51 -113 -51c-13 0 -29 11 -49 33c55 9 109 40 162 93c53 -53 107 -84 162 -93z" />
    <glyph glyph-name="Idieresis" unicode="&#xcf;" horiz-adv-x="195" 
d="M152 0h-141c34 53 34 54 34 58v559c0 3 -11 21 -34 55h128c-31 -43 -32 -46 -32 -59v-546c4 -5 19 -27 45 -67zM205 771c0 -27 -22 -49 -50 -49s-50 22 -50 49s23 50 50 50s50 -23 50 -50zM47 771c0 -27 -22 -49 -50 -49s-50 22 -50 49s23 50 50 50s50 -23 50 -50z" />
    <glyph glyph-name="Igrave" unicode="&#xcc;" horiz-adv-x="195" 
d="M152 0h-141c34 53 34 54 34 58v559c0 3 -11 21 -34 55h128c-31 -43 -32 -46 -32 -59v-546c4 -5 19 -27 45 -67zM167 749l-30 -26c-40 30 -90 61 -151 94c24 24 42 36 53 36c22 0 114 -81 128 -104z" />
    <glyph glyph-name="Oacute" unicode="&#xd3;" horiz-adv-x="591" 
d="M556 340c0 -200 -119 -350 -280 -350c-149 0 -268 137 -268 331c0 130 69 273 149 293c-57 -71 -85 -151 -85 -242c0 -172 114 -325 243 -325c106 0 184 102 184 248c0 175 -105 338 -216 338c-39 0 -58 -17 -58 -50c0 -12 20 -32 32 -32c21 9 25 10 32 12
c0 -58 -15 -70 -51 -70c-39 0 -64 38 -64 83c0 55 59 102 128 102c143 0 254 -143 254 -338zM389 815c-61 -33 -111 -64 -151 -94l-30 26c14 23 106 104 128 104c11 0 29 -12 53 -36z" />
    <glyph glyph-name="Ocircumflex" unicode="&#xd4;" horiz-adv-x="591" 
d="M556 340c0 -200 -119 -350 -280 -350c-149 0 -268 137 -268 331c0 130 69 273 149 293c-57 -71 -85 -151 -85 -242c0 -172 114 -325 243 -325c106 0 184 102 184 248c0 175 -105 338 -216 338c-39 0 -58 -17 -58 -50c0 -12 20 -32 32 -32c21 9 25 10 32 12
c0 -58 -15 -70 -51 -70c-39 0 -64 38 -64 83c0 55 59 102 128 102c143 0 254 -143 254 -338zM459 756c-20 -22 -36 -33 -49 -33c-37 0 -74 17 -113 51c-39 -34 -76 -51 -113 -51c-13 0 -29 11 -49 33c55 9 109 40 162 93c53 -53 107 -84 162 -93z" />
    <glyph glyph-name="Ograve" unicode="&#xd2;" horiz-adv-x="591" 
d="M556 340c0 -200 -119 -350 -280 -350c-149 0 -268 137 -268 331c0 130 69 273 149 293c-57 -71 -85 -151 -85 -242c0 -172 114 -325 243 -325c106 0 184 102 184 248c0 175 -105 338 -216 338c-39 0 -58 -17 -58 -50c0 -12 20 -32 32 -32c21 9 25 10 32 12
c0 -58 -15 -70 -51 -70c-39 0 -64 38 -64 83c0 55 59 102 128 102c143 0 254 -143 254 -338zM357 749l-30 -26c-40 30 -90 61 -151 94c24 24 42 36 53 36c22 0 114 -81 128 -104z" />
    <glyph glyph-name="Uacute" unicode="&#xda;" horiz-adv-x="591" 
d="M578 48c-11 -34 -32 -51 -63 -51c-28 0 -35 8 -81 76c-111 -73 -126 -83 -189 -83c-135 0 -239 126 -239 290c0 95 32 166 117 265c35 39 56 66 63 81h-24c-26 0 -34 2 -104 26c-9 0 -20 -12 -20 -21c0 -6 3 -9 11 -9c5 0 13 1 22 4c3 -9 4 -17 4 -23
c0 -16 -11 -26 -26 -26c-20 0 -30 14 -30 43c0 38 39 70 84 70c67 -17 92 -23 96 -23c9 0 20 3 33 8c11 4 15 5 53 5c-3 -9 -23 -34 -61 -77c-105 -120 -147 -207 -147 -304c0 -140 91 -251 206 -251c37 0 154 60 154 96v347c0 135 -6 148 -38 190c19 3 64 4 135 4
c-28 -28 -32 -37 -32 -97v-425c0 -79 24 -115 76 -115zM449 815c-61 -33 -111 -64 -151 -94l-30 26c14 23 106 104 128 104c11 0 29 -12 53 -36z" />
    <glyph glyph-name="Ucircumflex" unicode="&#xdb;" horiz-adv-x="591" 
d="M578 48c-11 -34 -32 -51 -63 -51c-28 0 -35 8 -81 76c-111 -73 -126 -83 -189 -83c-135 0 -239 126 -239 290c0 95 32 166 117 265c35 39 56 66 63 81h-24c-26 0 -34 2 -104 26c-9 0 -20 -12 -20 -21c0 -6 3 -9 11 -9c5 0 13 1 22 4c3 -9 4 -17 4 -23
c0 -16 -11 -26 -26 -26c-20 0 -30 14 -30 43c0 38 39 70 84 70c67 -17 92 -23 96 -23c9 0 20 3 33 8c11 4 15 5 53 5c-3 -9 -23 -34 -61 -77c-105 -120 -147 -207 -147 -304c0 -140 91 -251 206 -251c37 0 154 60 154 96v347c0 135 -6 148 -38 190c19 3 64 4 135 4
c-28 -28 -32 -37 -32 -97v-425c0 -79 24 -115 76 -115zM489 756c-20 -22 -36 -33 -49 -33c-37 0 -74 17 -113 51c-39 -34 -76 -51 -113 -51c-13 0 -29 11 -49 33c55 9 109 40 162 93c53 -53 107 -84 162 -93z" />
    <glyph glyph-name="Ugrave" unicode="&#xd9;" horiz-adv-x="591" 
d="M578 48c-11 -34 -32 -51 -63 -51c-28 0 -35 8 -81 76c-111 -73 -126 -83 -189 -83c-135 0 -239 126 -239 290c0 95 32 166 117 265c35 39 56 66 63 81h-24c-26 0 -34 2 -104 26c-9 0 -20 -12 -20 -21c0 -6 3 -9 11 -9c5 0 13 1 22 4c3 -9 4 -17 4 -23
c0 -16 -11 -26 -26 -26c-20 0 -30 14 -30 43c0 38 39 70 84 70c67 -17 92 -23 96 -23c9 0 20 3 33 8c11 4 15 5 53 5c-3 -9 -23 -34 -61 -77c-105 -120 -147 -207 -147 -304c0 -140 91 -251 206 -251c37 0 154 60 154 96v347c0 135 -6 148 -38 190c19 3 64 4 135 4
c-28 -28 -32 -37 -32 -97v-425c0 -79 24 -115 76 -115zM375 749l-30 -26c-40 30 -90 61 -151 94c24 24 42 36 53 36c22 0 114 -81 128 -104z" />
    <glyph glyph-name="circumflex" unicode="&#x2c6;" horiz-adv-x="333" 
d="M329 521c-20 -22 -36 -33 -49 -33c-37 0 -74 17 -113 51c-39 -34 -76 -51 -113 -51c-13 0 -29 11 -49 33c55 9 109 40 162 93c53 -53 107 -84 162 -93z" />
    <glyph glyph-name="tilde" unicode="&#x2dc;" horiz-adv-x="333" 
d="M286 584c-19 -53 -49 -79 -92 -79c-22 0 -29 2 -116 35c-14 0 -28 -12 -42 -36l-29 21c13 51 41 76 84 76c13 0 35 -6 66 -19c25 -10 43 -15 55 -15c19 0 33 12 44 37z" />
    <glyph glyph-name="macron" unicode="&#xaf;" horiz-adv-x="333" 
d="M313 637h-293v37h293v-37z" />
    <glyph glyph-name="cedilla" unicode="&#xb8;" horiz-adv-x="336" 
d="M260 -55c0 -53 -49 -93 -114 -93c-35 0 -69 11 -101 32l9 33c34 -14 43 -17 65 -18c39 0 59 18 59 53c0 20 -26 31 -77 33l26 86h64l-15 -52c57 -6 83 -30 84 -74z" />
    <glyph glyph-name="Scaron" unicode="&#x160;" horiz-adv-x="564" 
d="M532 241c0 -94 -43 -251 -277 -251c-151 0 -250 76 -250 193c0 85 86 154 192 154c87 0 161 -45 161 -115c0 -59 -45 -97 -115 -97c-50 0 -97 28 -97 58c0 25 16 42 48 51c8 -43 24 -65 49 -65c32 0 62 29 62 59c0 48 -52 84 -120 84c-82 0 -149 -60 -149 -136
c0 -109 128 -160 226 -160c119 0 218 87 218 193c0 57 -32 108 -95 152c-59 33 -117 65 -176 98c-63 37 -95 75 -95 116c0 59 75 110 167 110c83 0 142 -32 142 -78c0 -18 -22 -32 -52 -32c-4 0 -6 3 -6 8c0 3 1 13 3 30c0 35 -31 52 -93 52c-59 0 -110 -29 -110 -64
c0 -28 32 -57 95 -88c213 -103 272 -154 272 -272zM455 816c-55 -9 -109 -40 -162 -93c-53 53 -107 84 -162 93c20 22 36 33 49 33c37 0 74 -17 113 -51c39 34 76 51 113 51c13 0 29 -11 49 -33z" />
    <glyph glyph-name="scaron" unicode="&#x161;" horiz-adv-x="423" 
d="M390 161c0 -93 -109 -171 -242 -171c-94 0 -141 45 -141 114c0 50 51 95 109 95c64 0 96 -20 96 -59c0 -29 -5 -36 -32 -55h-51c2 5 4 9 19 38c0 21 -17 32 -52 32c-39 0 -70 -28 -70 -64c0 -40 48 -65 122 -65c109 0 191 52 191 122c0 37 -26 63 -79 78
c-49 11 -99 21 -148 32c-53 18 -79 49 -79 94c0 71 77 121 185 121c81 0 121 -25 121 -76c0 -29 -42 -58 -83 -58c-42 0 -63 17 -63 52c0 14 0 15 28 32c12 -20 24 -31 35 -32c12 0 26 17 26 32c0 18 -32 32 -70 32c-72 0 -135 -37 -135 -83c0 -42 12 -45 232 -96
c54 -23 81 -61 81 -115zM365 639c-55 -9 -109 -40 -162 -93c-53 53 -107 84 -162 93c20 22 36 33 49 33c37 0 74 -17 113 -51c39 34 76 51 113 51c13 0 29 -11 49 -33z" />
    <glyph glyph-name="brokenbar" unicode="&#xa6;" horiz-adv-x="260" 
d="M167 460h-73v277h73v-277zM167 -19h-73v294h73v-294z" />
    <glyph glyph-name="Eth" unicode="&#xd0;" horiz-adv-x="650" 
d="M614 365c0 -165 -97 -278 -288 -335c-43 -11 -87 -21 -130 -31h-64c30 28 37 67 38 221h-87v70l87 1c-126 31 -166 65 -166 165c0 123 96 230 282 230s328 -139 328 -321zM530 372c0 170 -102 283 -250 283c-139 0 -251 -84 -251 -187c0 -85 68 -146 126 -146h14
c0 140 -1 173 -17 197c0 17 35 36 83 46c-11 -19 -16 -55 -16 -108c0 -39 3 -82 8 -127c62 10 118 52 118 90c0 13 -5 21 -15 23h-37c9 34 24 51 44 51c37 0 55 -24 55 -71c0 -59 -49 -104 -146 -133h53v-70h-77v-106c1 0 1 6 1 16c0 -31 -3 -59 -8 -85
c203 29 313 146 315 327z" />
    <glyph glyph-name="eth" unicode="&#xf0;" horiz-adv-x="556" 
d="M516 254c0 -165 -100 -267 -241 -267c-148 0 -239 101 -239 266c0 162 85 265 220 266c39 0 57 -5 104 -29c-21 39 -44 74 -69 104l-135 -61l-21 50l116 52c-31 30 -65 57 -101 81h106c29 -22 50 -39 62 -50l105 50l21 -50l-84 -41c104 -119 156 -242 156 -371zM425 258
c0 126 -72 193 -152 193c-91 0 -147 -76 -148 -201c0 -119 56 -190 150 -190c92 0 150 77 150 198z" />
    <glyph glyph-name="Yacute" unicode="&#xdd;" horiz-adv-x="541" 
d="M509 682c0 -198 -28 -430 -71 -595c-38 -144 -114 -238 -193 -238c-42 0 -77 34 -77 77c0 11 3 16 8 16c50 -26 54 -28 63 -28c37 0 75 28 112 83c37 54 52 99 52 148c-93 -53 -103 -58 -151 -58c-105 0 -180 109 -180 245c0 77 12 106 77 260c-23 3 -36 5 -53 5
c-15 -1 -29 -2 -31 -2c-13 12 -16 14 -17 14c-6 0 -11 -11 -15 -34c12 -5 23 -11 32 -19c-13 -13 -23 -19 -32 -19c-10 0 -26 24 -26 38c0 70 74 71 199 71c-55 -117 -70 -168 -70 -257c0 -144 60 -231 160 -231c99 0 168 124 168 302c0 58 -12 92 -55 199
c33 9 66 17 100 23zM409 815c-61 -33 -111 -64 -151 -94l-30 26c14 23 106 104 128 104c11 0 29 -12 53 -36z" />
    <glyph glyph-name="yacute" unicode="&#xfd;" 
d="M412 463c-25 -33 -37 -51 -37 -54c4 -29 4 -29 5 -172c0 -237 -8 -301 -59 -363c-33 -41 -84 -61 -153 -61c-41 0 -71 22 -71 51c0 15 20 28 61 38c7 -57 8 -57 48 -57c49 0 71 19 109 95v115l-6 13c-80 -59 -85 -63 -141 -63c-97 0 -160 79 -160 198c0 52 5 67 57 192
c-5 2 -21 11 -48 26c34 16 72 29 113 38c-1 -16 -13 -47 -34 -92s-31 -93 -31 -145c0 -95 58 -167 135 -167c63 0 115 55 115 122v231c0 13 -2 18 -31 55c42 4 64 7 69 8c15 0 34 -3 59 -8zM319 635c-61 -33 -111 -64 -151 -94l-30 26c14 23 106 104 128 104
c11 0 29 -12 53 -36z" />
    <glyph glyph-name="Thorn" unicode="&#xde;" horiz-adv-x="668" 
d="M614 363c0 -138 -84 -207 -259 -207h-192v-146h-75v696h75v-146h185c124 0 179 -17 222 -68c29 -33 43 -76 44 -129zM536 364c0 59 -37 110 -90 125c-16 5 -46 7 -91 7h-192v-276h195c119 0 177 47 178 144z" />
    <glyph glyph-name="thorn" unicode="&#xfe;" horiz-adv-x="556" 
d="M506 263c0 -116 -69 -266 -215 -266c-55 0 -89 19 -147 82v-268h-68v895h68v-267c62 64 94 81 152 81c121 0 210 -108 210 -257zM436 264c0 127 -57 207 -148 207s-152 -86 -152 -215c0 -125 58 -205 148 -205c130 0 152 138 152 213z" />
    <glyph glyph-name="multiply" unicode="&#xd7;" horiz-adv-x="584" 
d="M531 51l-37 -37l-201 201l-203 -201l-37 37l203 202l-203 202l38 37l201 -200l202 200l37 -37l-200 -201z" />
    <glyph glyph-name="onesuperior" unicode="&#xb9;" horiz-adv-x="118" 
d="M97 403c0 -6 -26 -21 -39 -21c-9 0 -24 37 -24 99c0 31 8 90 24 177c-21 0 -32 1 -33 4h-17v18c1 0 5 1 15 5c17 0 29 6 35 17c6 12 17 19 33 20l3 -7c-21 -131 -22 -136 -22 -187c0 -55 18 -126 25 -126v1z" />
    <glyph glyph-name="twosuperior" unicode="&#xb2;" horiz-adv-x="233" 
d="M209 432c-5 -21 -11 -39 -18 -53c-34 9 -50 11 -89 11c-18 0 -20 0 -100 -8c12 35 44 79 96 130c43 43 65 83 65 119c0 44 -29 74 -72 74c-31 0 -57 -22 -57 -50c0 -22 8 -33 25 -33c7 0 15 6 26 18c5 -10 8 -16 8 -18s-2 -7 -3 -7v2c0 -23 -11 -35 -34 -35
c-28 0 -48 24 -48 59c0 46 43 80 101 80c60 0 99 -37 99 -93c0 -49 -24 -77 -113 -151c-29 -23 -45 -43 -49 -58c20 4 74 8 163 13z" />
    <glyph glyph-name="threesuperior" unicode="&#xb3;" horiz-adv-x="253" 
d="M238 510c0 -68 -74 -131 -152 -131c-51 0 -83 24 -83 61c0 19 15 34 33 34c24 0 27 -8 33 -37c-7 1 -13 2 -17 2c-5 0 -8 -1 -8 -4v-3c-7 0 -11 -2 -11 -6c0 -14 25 -30 46 -30c59 0 115 56 115 111c0 37 -30 70 -75 70c-12 0 -19 -1 -67 -15c1 13 13 25 113 122h-86
c-20 0 -25 -3 -46 -14c-8 0 -23 21 -23 31c0 4 35 24 80 24c5 0 9 0 85 -11c3 0 8 1 27 6c6 0 13 -2 21 -7l-100 -105c25 -7 51 -15 76 -22c26 -13 39 -39 39 -76z" />
    <glyph glyph-name="onehalf" unicode="&#xbd;" horiz-adv-x="470" 
d="M98 407c0 -4 -24 -21 -38 -21c-13 0 -24 47 -24 99c0 33 8 91 24 176c-21 0 -32 1 -33 4c-11 0 -17 1 -18 2v18c11 0 45 11 50 21c6 12 17 19 34 20l2 -7c-21 -131 -22 -136 -22 -187c0 -55 18 -126 25 -126v1zM355 726l-307 -726h-44l307 726h44zM449 48
c-5 -21 -11 -39 -18 -53c-34 9 -50 11 -89 11c-18 0 -20 0 -100 -8c12 35 44 79 96 130c43 43 65 83 65 119c0 44 -29 74 -72 74c-31 0 -57 -22 -57 -50c0 -22 8 -33 25 -33c7 0 15 6 26 18c5 -10 8 -16 8 -18s-2 -7 -3 -7v2c0 -23 -11 -35 -34 -35c-28 0 -48 24 -48 59
c0 46 43 80 101 80c60 0 99 -37 99 -93c0 -49 -24 -77 -113 -151c-29 -23 -45 -43 -49 -58c20 4 74 8 163 13z" />
    <glyph glyph-name="onequarter" unicode="&#xbc;" horiz-adv-x="478" 
d="M98 407c0 -4 -24 -21 -38 -21c-13 0 -24 47 -24 99c0 33 8 91 24 176c-21 0 -32 1 -33 4c-11 0 -17 1 -18 2v18c11 0 45 11 50 21c6 12 17 19 34 20l2 -7c-21 -131 -22 -136 -22 -187c0 -55 18 -126 25 -126v1zM355 726l-307 -726h-44l307 726h44zM469 178
c0 -46 -20 -55 -116 -67c0 -23 5 -54 16 -91c-13 -5 -29 -12 -46 -20c-3 21 -9 60 -18 117c-49 0 -95 -6 -137 -18c21 149 98 240 233 275c-28 -53 -54 -157 -54 -226c0 -7 5 -8 15 -8c66 2 83 4 83 26c0 3 -7 8 -20 15c6 15 13 22 22 22s22 -15 22 -25zM355 336
c-75 -42 -137 -123 -155 -201c19 8 42 12 69 13c24 1 37 2 40 5c2 55 22 125 46 183z" />
    <glyph glyph-name="threequarters" unicode="&#xbe;" horiz-adv-x="564" 
d="M238 510c0 -68 -74 -131 -152 -131c-51 0 -83 24 -83 61c0 19 15 34 33 34c24 0 27 -8 33 -37c-7 1 -13 2 -17 2c-5 0 -8 -1 -8 -4v-3c-7 0 -11 -2 -11 -6c0 -14 25 -30 46 -30c59 0 115 56 115 111c0 37 -30 70 -75 70c-12 0 -19 -1 -67 -15c1 13 13 25 113 122h-86
c-20 0 -25 -3 -46 -14c-8 0 -23 21 -23 31c0 4 35 24 80 24c5 0 9 0 85 -11c3 0 8 1 27 6c6 0 13 -2 21 -7l-100 -105c25 -7 51 -15 76 -22c26 -13 39 -39 39 -76zM435 726l-307 -726h-44l307 726h44zM549 178c0 -46 -20 -55 -116 -67c0 -23 5 -54 16 -91
c-13 -5 -29 -12 -46 -20c-3 21 -9 60 -18 117c-49 0 -95 -6 -137 -18c21 149 98 240 233 275c-28 -53 -54 -157 -54 -226c0 -7 5 -8 15 -8c66 2 83 4 83 26c0 3 -7 8 -20 15c6 15 13 22 22 22s22 -15 22 -25zM435 336c-75 -42 -137 -123 -155 -201c19 8 42 12 69 13
c24 1 37 2 40 5c2 55 22 125 46 183z" />
    <glyph glyph-name="mu1" unicode="&#xb5;" horiz-adv-x="556" 
d="M479 10h-63l-2 70l-12 15c-43 -73 -87 -100 -164 -100c-33 0 -58 11 -75 34h-17v-226h-68v710h68v-337c0 -83 37 -125 111 -125c96 0 154 73 154 184v278h68v-503z" />
  </font>
</defs>
</svg>
